<?xml version="1.0" standalone="no"?>
<!DOCTYPE svg PUBLIC "-//W3C//DTD SVG 20010904//EN"
 "http://www.w3.org/TR/2001/REC-SVG-20010904/DTD/svg10.dtd">
<svg version="1.0" xmlns="http://www.w3.org/2000/svg"
 width="512.000000pt" height="512.000000pt" viewBox="0 0 512.000000 512.000000"
 preserveAspectRatio="xMidYMid meet">
<metadata>
Created by potrace 1.16, written by Peter Selinger 2001-2019
</metadata>
<g transform="translate(0.000000,512.000000) scale(0.100000,-0.100000)"
fill="#000000" stroke="none">
<path d="M4854 4888 c-99 -74 -283 -242 -288 -263 -9 -35 -26 -31 -74 18 -36
36 -48 43 -78 42 -23 -2 -45 -11 -62 -28 l-26 -26 -40 35 c-23 19 -80 68 -128
109 -82 71 -89 75 -135 75 -58 0 -76 -11 -103 -65 -31 -60 -26 -116 15 -189
19 -35 44 -71 56 -82 12 -10 27 -31 35 -46 l14 -27 -498 -417 c-273 -229 -529
-450 -569 -490 -40 -41 -77 -74 -83 -74 -6 0 -46 34 -89 75 -71 68 -82 75
-118 75 -22 0 -46 6 -52 13 -20 25 -73 18 -138 -20 -54 -32 -63 -41 -72 -79
-14 -54 -14 -201 -1 -209 6 -3 10 -24 10 -46 0 -31 9 -50 40 -90 22 -28 40
-54 40 -58 0 -4 -14 -12 -31 -18 -17 -7 -33 -21 -36 -32 -3 -12 -13 -21 -23
-21 -19 0 -50 -30 -50 -48 0 -7 -8 -12 -18 -12 -21 0 -52 -29 -52 -48 0 -7 -9
-12 -20 -12 -11 0 -29 -13 -42 -30 -12 -16 -27 -30 -34 -30 -7 0 -23 -12 -36
-27 -13 -16 -36 -35 -52 -43 -15 -8 -32 -25 -37 -37 -5 -13 -12 -22 -16 -21
-18 3 -45 -16 -54 -38 -4 -13 -16 -24 -26 -24 -10 -1 -76 -51 -147 -113 -143
-125 -159 -149 -154 -248 3 -68 5 -66 -142 -192 -58 -49 -133 -118 -167 -152
-35 -35 -90 -84 -123 -109 -33 -25 -279 -231 -546 -458 -385 -328 -492 -414
-517 -416 -47 -5 -57 -18 -57 -77 l0 -52 323 -379 c178 -209 331 -385 340
-392 20 -17 107 -24 124 -10 18 15 17 97 -2 118 -13 15 -11 29 18 136 l33 119
42 3 c34 3 43 7 47 25 24 109 75 408 75 444 0 30 -7 55 -22 75 -27 39 -23 46
80 126 48 37 82 71 82 81 0 10 59 70 140 140 116 101 140 127 140 150 0 25 28
59 82 100 15 11 19 10 29 -13 10 -22 19 -26 53 -26 37 0 48 8 109 65 63 60 67
67 67 107 0 24 -6 50 -13 57 -10 10 -6 18 21 40 22 19 32 36 32 56 l0 29 38
-37 c47 -46 89 -49 139 -11 62 47 91 54 148 36 l50 -17 78 -199 c77 -197 78
-198 60 -225 -35 -51 -26 -76 74 -223 52 -76 105 -167 120 -206 26 -68 28 -70
62 -69 30 1 55 21 223 182 188 179 189 180 186 220 -3 37 -5 40 -42 47 -22 5
-45 13 -52 19 -7 6 -35 69 -63 139 -45 115 -49 135 -44 181 7 56 -2 69 -47 69
-19 0 -31 10 -48 40 l-23 40 35 31 c19 16 37 38 40 47 7 20 210 204 236 214
12 4 24 0 37 -14 63 -72 390 -298 620 -430 129 -74 175 -81 223 -32 39 39 254
461 255 498 0 26 -9 34 -110 90 -320 180 -615 397 -615 453 0 13 -6 23 -14 23
-14 0 -157 146 -181 184 -17 27 -8 96 12 96 20 0 101 68 108 91 4 10 13 19 21
19 12 0 674 570 779 671 54 52 112 99 123 99 5 0 24 16 41 35 17 19 34 35 38
35 4 0 39 29 78 65 38 36 72 65 75 65 5 0 43 36 111 104 33 33 39 46 39 82 0
31 -5 46 -17 53 -11 6 -18 22 -19 40 0 26 4 31 22 31 15 0 68 39 146 106 172
148 187 167 187 229 1 59 -5 70 -39 70 -20 0 -26 6 -28 28 -3 26 -6 27 -56 27
-38 0 -60 -6 -82 -22z m-1917 -2548 c18 -10 40 -34 49 -52 l17 -32 -54 -49
c-146 -131 -157 -139 -181 -132 -34 11 -88 66 -88 90 0 30 182 195 215 195 6
0 24 -9 42 -20z"/>
</g>
</svg>
