<?xml version="1.0" standalone="no"?>
<!DOCTYPE svg PUBLIC "-//W3C//DTD SVG 20010904//EN"
 "http://www.w3.org/TR/2001/REC-SVG-20010904/DTD/svg10.dtd">
<svg version="1.0" xmlns="http://www.w3.org/2000/svg"
 width="157.000000pt" height="170.000000pt" viewBox="0 0 157.000000 170.000000"
 preserveAspectRatio="xMidYMid meet">
<metadata>
Created by potrace 1.16, written by Peter Selinger 2001-2019
</metadata>
<g transform="translate(0.000000,170.000000) scale(0.100000,-0.100000)"
fill="#000000" stroke="none">
<path d="M1212 1500 l-194 -197 -44 5 c-30 3 -51 0 -68 -12 -14 -9 -42 -16
-63 -16 -24 0 -45 -7 -60 -22 -19 -18 -36 -22 -102 -23 -70 -1 -87 -6 -170
-45 -51 -24 -101 -55 -111 -67 -10 -13 -26 -23 -36 -23 -32 -1 -153 -97 -160
-128 -4 -15 -21 -40 -39 -57 -25 -23 -39 -51 -60 -120 -15 -49 -33 -97 -40
-105 -15 -19 -35 -131 -35 -194 0 -26 -7 -61 -16 -78 -9 -17 -13 -40 -10 -54
13 -51 61 -137 104 -187 l45 -52 -47 48 c-39 38 -52 46 -72 41 -30 -8 -40 -22
-20 -30 9 -3 25 -21 36 -40 16 -24 33 -37 63 -45 22 -6 56 -26 75 -45 28 -28
46 -36 99 -44 61 -10 67 -9 80 10 8 11 25 20 37 20 13 0 29 6 35 14 13 15 91
27 91 14 0 -15 48 -8 54 7 3 8 15 15 26 15 12 0 19 4 16 9 -3 4 5 6 17 4 14
-3 30 3 41 16 22 24 61 28 69 7 3 -8 -3 -22 -14 -32 -20 -18 -27 -40 -9 -29 5
3 7 0 4 -8 -7 -19 3 -25 57 -32 32 -4 38 -3 24 4 -11 5 -14 10 -7 10 7 1 21
-4 32 -11 21 -13 30 -9 34 17 1 9 9 21 17 26 8 5 11 9 7 9 -4 0 -1 8 7 18 40
49 56 66 49 52 -7 -13 -6 -13 10 -1 22 19 77 98 80 116 1 8 75 107 165 222
l163 208 -5 70 c-3 39 -15 96 -26 127 -19 55 -19 57 0 74 69 62 78 213 17 280
-19 21 -18 21 25 70 136 153 187 218 187 239 0 23 -27 61 -82 118 -51 52 -63
44 -276 -173z m252 144 c14 -15 26 -30 26 -35 0 -16 -114 -139 -221 -237
l-109 -102 60 0 c59 0 110 -19 110 -42 0 -5 -12 0 -26 11 -67 53 -222 -4 -260
-95 -26 -62 -11 -149 30 -184 18 -14 109 -21 121 -8 4 4 0 29 -10 57 -10 30
-14 63 -10 83 4 18 2 46 -4 61 -7 19 -7 27 0 27 6 0 13 -9 16 -21 4 -15 11
-19 27 -15 39 10 66 -4 66 -34 0 -30 -13 -40 -43 -32 -15 4 -16 7 -5 14 9 7 8
8 -5 4 -10 -3 -23 -6 -28 -6 -11 0 -12 -51 -1 -65 4 -5 22 -10 40 -10 39 1 40
-7 5 -35 l-28 -21 32 15 c44 22 92 84 100 129 3 20 10 37 15 37 19 0 -4 -66
-41 -119 -27 -40 -48 -58 -81 -72 -52 -21 -118 -24 -154 -7 -73 33 -93 163
-38 247 9 13 15 33 14 44 -4 21 15 52 65 108 43 47 37 50 -14 7 -21 -18 39 47
132 144 94 97 175 177 181 177 6 1 23 -11 38 -25z m-824 -478 c0 -7 11 -39 25
-70 l25 -56 -58 -29 c-31 -16 -82 -45 -112 -65 l-55 -35 -19 42 c-11 23 -21
63 -24 88 l-4 46 58 28 c146 69 164 75 164 51z m-252 -226 l33 -70 -62 -58
c-34 -31 -65 -58 -69 -60 -8 -3 -46 97 -55 148 -6 34 -4 37 47 73 29 20 58 37
63 37 6 0 25 -32 43 -70z m359 42 c6 -4 17 -21 22 -37 10 -27 10 -28 -3 -12
-13 17 -16 17 -46 2 -18 -9 -30 -19 -27 -22 3 -2 15 1 27 7 21 11 21 11 -2
-24 -13 -20 -29 -34 -35 -31 -7 2 -14 0 -14 -5 -1 -6 -2 -16 -3 -22 0 -7 -9
-13 -18 -13 -10 0 -25 -9 -35 -19 -10 -10 -12 -16 -6 -12 9 5 11 2 7 -9 -4 -9
0 -24 7 -33 8 -10 -7 5 -33 32 -26 28 -48 57 -48 64 0 29 24 54 98 97 79 47
89 50 109 37z m508 -152 c13 -94 5 -111 -161 -335 -85 -116 -192 -261 -237
-323 -45 -62 -83 -108 -85 -102 -2 6 0 16 6 23 105 134 428 578 440 605 10 23
15 64 15 110 -1 83 12 96 22 22z m-1038 -87 l22 -66 -37 -46 c-20 -25 -39 -50
-43 -55 -13 -15 -42 57 -43 108 -1 40 5 62 28 99 34 58 41 54 73 -40z"/>
</g>
</svg>
