<?xml version="1.0" standalone="no"?>
<!DOCTYPE svg PUBLIC "-//W3C//DTD SVG 20010904//EN"
 "http://www.w3.org/TR/2001/REC-SVG-20010904/DTD/svg10.dtd">
<svg version="1.0" xmlns="http://www.w3.org/2000/svg"
 width="512.000000pt" height="512.000000pt" viewBox="0 0 512.000000 512.000000"
 preserveAspectRatio="xMidYMid meet">
<metadata>
Created by potrace 1.16, written by Peter Selinger 2001-2019
</metadata>
<g transform="translate(0.000000,512.000000) scale(0.100000,-0.100000)"
fill="#000000" stroke="none">
<path d="M4355 4661 c-78 -47 -108 -94 -86 -130 6 -10 5 -22 -5 -35 -22 -32
-17 -65 15 -97 24 -24 38 -29 77 -29 47 0 47 0 28 -21 -10 -11 -57 -52 -105
-90 -68 -55 -91 -80 -104 -114 l-16 -44 -38 39 c-32 34 -44 40 -79 40 -35 0
-52 -9 -115 -59 -41 -33 -78 -64 -82 -70 -3 -6 -18 -11 -33 -11 -43 -1 -125
-57 -148 -102 -9 -18 -23 -28 -36 -28 -28 0 -96 -47 -103 -71 -4 -11 -12 -19
-20 -19 -7 0 -44 -24 -81 -53 -93 -71 -90 -70 -123 -52 -79 40 -161 3 -161
-72 0 -33 -7 -46 -48 -86 -42 -42 -52 -47 -79 -41 -23 5 -36 1 -51 -14 -17
-17 -20 -29 -15 -74 l5 -54 -238 -191 c-132 -105 -248 -193 -260 -197 -12 -3
-36 -25 -54 -47 -18 -22 -52 -49 -75 -59 -24 -10 -49 -29 -55 -42 -16 -31 -46
-55 -97 -78 -23 -10 -47 -28 -53 -40 -6 -11 -36 -45 -66 -74 -55 -53 -56 -54
-53 -107 1 -35 -4 -65 -14 -85 -10 -20 -14 -44 -11 -65 5 -31 3 -35 -25 -45
-37 -15 -72 -69 -69 -108 3 -30 -8 -41 -53 -50 -14 -3 -62 -37 -107 -75 -51
-44 -97 -75 -128 -86 -27 -9 -59 -23 -71 -31 -12 -8 -33 -14 -45 -14 -13 0
-47 -12 -77 -25 -30 -14 -123 -39 -208 -56 -229 -45 -341 -88 -533 -204 -242
-147 -370 -248 -390 -311 -20 -60 46 -164 104 -164 22 0 56 -33 242 -237 211
-231 269 -303 280 -349 19 -78 59 -124 109 -124 30 0 48 12 123 79 158 143
320 321 399 436 57 85 95 165 133 280 18 55 56 143 86 196 30 52 54 100 54
105 0 6 14 23 31 40 17 16 39 45 49 64 10 19 46 59 79 88 34 29 64 63 67 75 3
12 37 48 76 79 65 54 73 57 108 52 30 -5 47 -1 82 20 l45 26 45 -73 c25 -39
69 -121 99 -181 86 -173 135 -192 277 -107 45 27 98 52 118 56 20 3 50 19 65
35 27 27 29 32 23 92 -7 70 -33 136 -89 224 -21 33 -66 105 -101 161 l-62 101
58 -1 58 -2 -5 -31 c-6 -37 23 -74 57 -74 33 0 94 36 130 76 47 54 63 99 57
156 -4 27 -5 48 -4 48 1 0 34 -10 72 -23 41 -13 81 -34 97 -50 15 -15 38 -27
51 -27 14 0 85 -14 158 -31 74 -18 170 -36 214 -41 44 -5 114 -13 155 -19 65
-8 164 -11 303 -9 20 0 49 0 65 0 122 -4 163 0 201 19 40 21 45 28 55 93 10
55 -22 347 -42 387 -29 59 -53 69 -187 75 -66 3 -156 10 -200 16 -44 6 -134
10 -200 9 -127 -1 -226 11 -312 38 -49 15 -52 18 -37 34 8 9 45 31 82 49 37
17 83 44 103 60 20 16 52 35 72 44 21 8 42 26 49 41 7 15 29 36 51 46 21 11
46 33 55 48 9 16 31 34 50 41 20 7 42 26 53 45 11 18 30 36 43 39 29 7 134
128 142 164 4 15 16 45 27 67 16 31 18 51 14 101 l-6 62 55 47 c39 34 69 50
109 59 37 9 70 27 107 57 252 208 423 357 439 383 45 74 -1 183 -96 227 -53
25 -76 24 -133 -5 l-48 -24 -36 22 c-20 12 -56 40 -82 64 -37 34 -53 42 -83
42 -21 0 -51 -8 -68 -19z m-3057 -3041 c15 0 46 -24 89 -67 65 -66 67 -70 67
-118 -1 -60 -30 -144 -77 -223 -50 -81 -158 -204 -211 -240 l-45 -30 -95 96
c-52 53 -105 111 -117 127 -12 17 -41 50 -64 75 -118 126 -146 160 -140 170
10 17 144 104 210 137 117 59 219 84 310 77 28 -2 60 -4 73 -4z"/>
</g>
</svg>
