<?xml version="1.0" encoding="iso-8859-1"?>
<!-- Generator: Adobe Illustrator 19.0.0, SVG Export Plug-In . SVG Version: 6.00 Build 0)  -->
<svg version="1.1" id="Layer_1" xmlns="http://www.w3.org/2000/svg" xmlns:xlink="http://www.w3.org/1999/xlink" x="0px" y="0px"
	 viewBox="0 0 511.999 511.999" style="enable-background:new 0 0 511.999 511.999;" xml:space="preserve">
<g>
	<g>
		<path d="M411.826,478.608H395.13v-94.609c0-71.057-53.426-129.743-122.435-138.03v-47.134
			c47.861-7.992,83.452-49.078,83.478-98.661C356.143,44.889,311.284,0.03,255.999,0c-55.285,0.03-100.144,44.889-100.174,100.174
			c0,9.22,7.475,16.696,16.696,16.696s16.696-7.475,16.696-16.696c0.007-18.442,7.458-35.042,19.587-47.195
			c12.153-12.13,28.753-19.582,47.195-19.589c18.442,0.007,35.042,7.458,47.195,19.587c12.129,12.153,19.581,28.753,19.587,47.195
			c-0.007,18.442-7.458,35.041-19.587,47.195c-12.153,12.129-28.753,19.58-47.195,19.587c-9.22,0-16.696,7.475-16.696,16.696v62.318
			c-69.009,8.287-122.435,66.973-122.435,138.03v94.609h-16.696c-9.22,0-16.696,7.475-16.696,16.696s7.475,16.696,16.696,16.696
			h16.696H395.13h16.696c9.22,0,16.696-7.475,16.696-16.696S421.046,478.608,411.826,478.608z M328.347,428.521
			c0,9.217-7.473,16.696-16.696,16.696c-9.223,0-16.696-7.479-16.696-16.696v-44.522c0-21.478-17.478-38.957-38.957-38.957
			c-9.223,0-16.696-7.479-16.696-16.696s7.473-16.696,16.696-16.696c39.891,0,72.348,32.456,72.348,72.348V428.521z"/>
	</g>
</g>
<g>
</g>
<g>
</g>
<g>
</g>
<g>
</g>
<g>
</g>
<g>
</g>
<g>
</g>
<g>
</g>
<g>
</g>
<g>
</g>
<g>
</g>
<g>
</g>
<g>
</g>
<g>
</g>
<g>
</g>
</svg>
