<svg id="Layer_1" data-name="Layer 1" xmlns="http://www.w3.org/2000/svg" viewBox="0 0 988.03 1256.57"><defs><style>.cls-1{fill:#fefefe;}.cls-2{fill:#602d10;}.cls-3{fill:#e5e5e5;}.cls-4{fill:#d07248;}.cls-5{fill:#9c4a24;}.cls-6{fill:#d07349;}.cls-7{fill:#58240a;}.cls-8{fill:#59250b;}.cls-9{fill:#5b280e;}.cls-10{fill:#fdfcfc;}.cls-11{fill:#5e2b11;}.cls-12{fill:#542006;}.cls-13{fill:#5d2a10;}.cls-14{fill:#572409;}.cls-15{fill:#562308;}.cls-16{fill:#61290d;}.cls-17{fill:#572309;}.cls-18{fill:#572308;}.cls-19{fill:#5f280c;}.cls-20{fill:#552107;}.cls-21{fill:#582409;}.cls-22{fill:#562208;}.cls-23{fill:#602a0f;}.cls-24{fill:#552207;}.cls-25{fill:#5b250a;}.cls-26{fill:#ebe7e4;}.cls-27{fill:#57240a;}.cls-28{fill:#5a260c;}.cls-29{fill:#5c290f;}.cls-30{fill:#5e2a10;}.cls-31{fill:#6c371c;}.cls-32{fill:#cab3a7;}.cls-33{fill:#863f1d;}.cls-34{fill:#894f31;}.cls-35{fill:#8d431f;}.cls-36{fill:#703c20;}.cls-37{fill:#8f573c;}.cls-38{fill:#997c6b;}.cls-39{fill:#59260c;}.cls-40{fill:#5a270d;}.cls-41{fill:#5e2c12;}.cls-42{fill:#612e14;}.cls-43{fill:#5a280e;}.cls-44{fill:#5d2b11;}.cls-45{fill:#5c280d;}.cls-46{fill:#58250b;}.cls-47{fill:#f0504a;}.cls-48{fill:#562309;}.cls-49{fill:#5a260b;}.cls-50{fill:#5b270d;}.cls-51{fill:#fdfdfc;}.cls-52{fill:#5a270e;}.cls-53{fill:#5b260b;}.cls-54{fill:#5d2c13;}</style></defs><title>Face4</title><path class="cls-1" d="M195.19,602.83" transform="translate(-201.88 -29.3)"/><path class="cls-2" d="M434.74,1223.89c-1.8-2.11-4.75-2.71-6.51-4.88a128,128,0,0,0-11-8.86c-3.35-2.76-7-5.13-10.3-8a39.33,39.33,0,0,0-7-5.89c-4.84-3.59-9-8-13.57-11.87a29.09,29.09,0,0,1-3.64-3q-7.15-7.19-14.36-14.33a19.37,19.37,0,0,0-1.81-1.44c-5.35-4.3-9-10.27-14.26-14.64-1.25-1.32-2.54-2.6-3.84-3.88-3.62-4.54-7.4-8.94-11.15-13.37-1.81-1.83-3.05-4.12-4.84-6-3.31-4-6.22-8.21-9.18-12.43-3.17-4.07-5.83-8.5-8.82-12.7-.81-1.32-1.69-2.59-2.55-3.89-2.95-5.55-6.64-10.67-9.44-16.3-1.49-2.47-3-4.94-4.26-7.51-1.69-3.59-4.09-6.77-5.8-10.35-2.95-6.35-6.5-12.41-9-19-.79-2-1.78-3.85-2.75-5.74-1.63-3.12-3-6.34-4.35-9.6-2.47-5.91-4.54-12-7-17.89-1.76-5.34-3.53-10.68-5.37-16a11.47,11.47,0,0,1-.49-1.64c-1.5-5.25-3.36-10.4-4.71-15.69-1.5-6.07-3.15-12.09-4.52-18.19-.9-4.77-2.09-9.48-3.11-14.23-1.69-9.63-2.92-19.34-4.47-29a10.4,10.4,0,0,1-.37-1.91c-.08-7.57-1.37-15-2.24-22.5-.74-5.73.28-11.56-1.05-17.25-.86-8.33-.4-16.67,0-25,1.36-4.88,1.14-9.82.49-14.76a14.36,14.36,0,0,0-4.24-9.51c-3.06-5-6.58-9.69-9.63-14.69-.76-1.42-1.49-2.86-2.28-4.27-2.7-5.77-5.91-11.3-8.4-17.18a188.71,188.71,0,0,1-11.08-36.61c-.93-4.53-1.62-9.1-2.52-13.64-1.18-6-1.38-12.13-2.42-18.14-.48-5.5.21-11-.66-16.54-1.39-9.36,1.47-18.64.53-28a36.26,36.26,0,0,1,.45-6.67c.89-5.63,1-11.35,2-17,.87-4.88,1.61-9.78,2.62-14.63a130.17,130.17,0,0,1,4-17.31,23.46,23.46,0,0,1,.68-2.49A156.42,156.42,0,0,1,219,603.25a47.19,47.19,0,0,1,11.18-14.13,31.39,31.39,0,0,1,6.58-3.72c8.82-2.64,8.8-2.63,7.3-12-.34-2.07-.84-4.1-1.16-6.17-.41-5.32-.28-10.64-.19-16a51,51,0,0,1,.41-10.26c1.42-8.31.34-16.81,1.88-25.1.88-10.59,2.91-21,3.83-31.62,1.43-6.22,1.47-12.66,3-18.86.91-5.21,1.75-10.44,2.78-15.63,1.3-5.64,1.73-11.46,3.46-17a2.64,2.64,0,0,1,1.85-1.7c.53.25.67.78,1,1.22s-.09-.13,0-.09c-.46-6.49,2.37-12.43,3.21-18.7.39-2.92,1.64-5.81.17-8.77.9-7.67,3.4-15,4.95-22.51,1.91-5.83,2.42-12.07,5-17.7a2.16,2.16,0,0,1,1.32-.86c.35.18,1,.27,1,.13,1.8-11.75,5.94-22.9,9-34.32a10.62,10.62,0,0,0,0-4.49c.35-5,2.41-9.57,3.3-14.43,1.89-5.44,3.66-10.93,5.42-16.41,1.23-4.12,2.35-8.28,3.73-12.36,2.47-6.74,4.56-13.61,6.81-20.43,2-5.35,3.61-10.85,5.47-16.25,2.44-5.43,4.09-11.15,6-16.77,2.52-6.15,5.49-12.11,7.93-18.3,2.65-4.67,4.58-9.72,7.63-14.18,1-1.56,1.83-3.19,2.86-4.72,3.82-5.57,7.4-11.3,11.31-16.81,1.38-1.52,2.47-3.25,3.69-4.89,3.35-4.18,6.5-8.53,10.15-12.47a43.16,43.16,0,0,0,6.94-8c3-3.12,6.12-6.11,9.12-9.23a47.41,47.41,0,0,1,6.94-6c3.87-3.28,7-7.41,11.29-10.18,2.23-2,4.75-3.74,7-5.73q7.25-5.75,14.75-11.13c.41-.31.85-.59,1.29-.87A188.2,188.2,0,0,1,435.64,94c2.65-1.56,5.33-3.1,7.94-4.74s5.54-3,8.24-4.55c5.68-3.53,11.74-6.33,17.68-9.34,2.2-1,4.3-2.16,6.5-3.14,3.63-1.14,6.89-3.11,10.34-4.65,5.85-2,11.34-4.85,17.14-7,11.15-4.35,22.58-7.83,34-11.38,5.7-1.6,11.36-3.33,17.09-4.82,6.66-1.74,13.44-2.93,20.09-4.71,2.88-.71,5.84-1.12,8.71-1.88s6-.28,8.88-1.43c3.85-1.29,8-1,11.86-2.11,6.38-.77,12.76-1.44,19.1-2.47,7.8-1,15.68-1.13,23.49-2a23,23,0,0,1,4.83-.52c2.77.17,5.58-.15,8.33.43,2.87,1.16,5.8,1.14,8.89,1.1,12.46-.16,24.92.71,37.39,0a21,21,0,0,0,6.66-1c3-.65,6-.34,9-.44,1.22,0,2.43,0,3.65.07a21,21,0,0,1,2.74.23A12.2,12.2,0,0,1,730,30c3.9,1,7.94,0,11.86.75,3.6,1,7.37.61,11,1.29,2.65.94,5.42.7,8.15.77a16.91,16.91,0,0,1,3.68.44c4.21.89,8.53,1.13,12.76,1.91,10.84,1.66,21.66,3.37,32.34,5.92a190.64,190.64,0,0,1,19.05,5.3c5.43,2,11.1,3.14,16.52,5.1,2.85,1.11,5.78,2,8.69,3,2.59.9,5.06,2.17,7.72,2.9,6.22,2.5,12.56,4.68,18.62,7.56,11.42,5,22.51,10.71,33.63,16.34,3.63,2.66,7.8,4.42,11.55,6.87,2,1.15,3.91,2.5,6,3.59,5.5,3.44,11,6.93,16.12,10.89,1.45,1.05,2.94,2,4.45,3,4.13,3.42,8.67,6.32,12.67,9.91,3.19,2.09,5.67,5.06,8.88,7.13a6.52,6.52,0,0,1,2.64,3.79c1.83,4.56,5.64,6.88,9.87,8.74,2.67.68,4.2,2.89,6.11,4.59,3.07,2.7,5.13,6.28,8,9.14,3,3.2,6.29,6,9,9.4,2.13,3.13,4.7,5.89,7,8.89,2,2.3,3.67,4.89,5.67,7.2a167.07,167.07,0,0,1,10.29,14.38c.86,1.28,1.66,2.6,2.57,3.85,3.59,5.15,6.83,10.52,10.05,15.9,2.17,3.55,4.15,7.2,6,10.91,1,1.8,2.23,3.5,3.19,5.33,1.18,2.88,3.27,5.41,3.37,8.7,0,3.12.71,5.92,3.28,8a5.23,5.23,0,0,1,1.69,1.55,71.42,71.42,0,0,1,5.41,11.38c1,2.22,1.74,4.53,2.76,6.73,2.42,5.68,4.41,11.51,6.4,17.34,1.57,5.16,3.41,10.21,5.08,15.33,1.13,3.21,2,6.52,2.94,9.78,1,3,1.64,6.1,2.68,9.1,1.74,5.7,2.92,11.53,4.23,17.34,1,5.71,2.26,11.37,3.64,17,1,6.49,2,13,3.26,19.44.44,3.86,1.15,7.68,1.58,11.54,2,13.93,3,27.95,4.18,41.95a56.37,56.37,0,0,1,.42,11.17,44.34,44.34,0,0,0,.83,10,383.28,383.28,0,0,1-.29,43.54c-3.71,4.53-2,9.58-1.35,14.53.08.28.14.55.22.82a10.18,10.18,0,0,1,.31,1.72c.15,1.81.16,3.61.18,5.41-.15,3.46-1.23,6.82-1,10.32,0,10.69-2.22,21.2-2.62,31.86-1.2,5.7-1.12,11.58-2.25,17.29-.15.87-.47,1.7-.7,2.56,1.29.25,1.5-1.22,2.44-1.53.88-.61,1.77-1.18,2.64-1.8a62.32,62.32,0,0,1,19-9.18c5.68-.85,11.37-1.88,17.06-.07,4.8,1.15,9.59,2.35,14,4.78a31.65,31.65,0,0,1,9.9,7.18c2.5,2.77,5.45,5.14,7.56,8.27a67,67,0,0,1,5.53,10.11,145.34,145.34,0,0,1,4.86,16c1.08,5.54,2,11.1,2.48,16.72.23,4.73,1.53,9.38,1.19,14.16a17.76,17.76,0,0,0,.76,6.35,40.61,40.61,0,0,1,.29,5.51,27.45,27.45,0,0,0,.63,6.32c-.3,5.24.86,10.37,1.26,15.55.11,1.3-.1,2.67.94,3.73q.57,10.53,1.13,21.07a54.25,54.25,0,0,0-2,12.84c-.74,2.59-1.58,5.17-1.33,7.93-.45,9.17-4.25,17.47-6.74,26.11-2.46,5.67-4.07,11.68-6.81,17.24-1,2-1.57,4.07-2.53,6-1.93,3.84-3.23,8-5.33,11.74-2.82,5.46-5.55,11-8.26,16.49-.77,1.39-1.49,2.8-2.23,4.2-2.71,3.88-4.43,8.33-7,12.31-3.39,5.55-6.67,11.17-10.19,16.63-.51.91-1,1.82-1.55,2.71-3.58,5.11-6.87,10.45-11.25,15q-3.18,3-6.19,6.26c-9.09,8.13-19.76,13.15-31.56,15.91a16.32,16.32,0,0,1-3.68.45c-5.66,0-11.33.27-17-.2a11,11,0,0,1-5.82-2c-1.25-.38,1.5-2.71-1.3-2.52s-5.22-2.61-8.16-.82c-2.4,6.87-2.35,14.13-3.58,21.18-.81,4.56-1,9.21-1.89,13.75-1,5.57-2,11.15-2.58,16.78-1,6.16-1.85,12.36-3.06,18.48-1,4.83-1.66,9.72-2.67,14.55-1.14,5.32-1.86,10.71-3,16a22.18,22.18,0,0,1-.55,2.67c-1.45,5.86-2.5,11.81-4,17.65-1.44,5.59-1.85,11.34-2.72,17-1.45,5.4-2.63,10.89-4.57,16.16a168.52,168.52,0,0,1-16.06,34.36c-2.27,3.24-4.51,6.52-6.67,9.84-1.65,2.29-3.52,4.41-5,6.85-3.57,5-7.73,9.61-11.38,14.58-1.21,1.35-2.54,2.59-3.78,3.92-4.62,5.44-9.5,10.65-14.35,15.88-5.4,4.8-10.28,10.19-16.07,14.56-1.31,1.21-2.56,2.49-3.82,3.76-4.84,3.37-8.6,8-13.43,11.39-1.91,1.65-3.87,3.24-5.92,4.73-4,3.62-8.17,6.9-12.41,10.16-3.06,2.27-6.08,4.57-9.13,6.85a68.3,68.3,0,0,1-7.29,5.62c-5.32,3.47-9.88,7.92-15.13,11.47a19.66,19.66,0,0,0-3,2.4c-6,5-12.34,9.48-18.25,14.55-5,3.19-9.74,6.85-14.57,10.33-3.38,2.38-6.86,4.62-10.28,6.94q-3.58,2.3-7.07,4.73c-6.13,3.54-11.92,7.63-18.09,11.09-1.16.6-2.35,1.15-3.47,1.83a109.91,109.91,0,0,1-13,7.62c-11,6.1-22.31,11.8-33.63,17.37-5.93,2.15-11.44,5.24-17.33,7.47-1.26.49-2.57.87-3.79,1.45-4.49,2-9.07,3.88-13.55,5.93-6.34,2.07-12.45,4.76-18.78,6.85-4.66,1-8.78,3.67-13.55,4.36a15.94,15.94,0,0,1-1.62.4c-6.66,1.93-13.38,3.58-20.09,5.31-4.74.85-9.43,1.91-14.14,2.9-5.1,1.31-10.37,1.73-15.5,2.89-6.27.84-12.48,2.12-18.79,2.66-2.48.12-5,0-7.43.73a36.53,36.53,0,0,1-6.69.45c-4.15.08-8.32-.34-12.45.42a375.75,375.75,0,0,1-42-.71c-5.67-1.7-12-.19-17.35-3.47a6.68,6.68,0,0,1-1.68-1.63c-8.59-3.94-17.86-6-26.47-9.94-6.17-2.8-11.78-6.86-18.56-8.3a12.36,12.36,0,0,1-5.1-2.16c-3.72-2.31-7.52-4.5-11.26-6.78q-2.82-2-5.76-3.75" transform="translate(-201.88 -29.3)"/><path class="cls-3" d="M212.3,568.61" transform="translate(-201.88 -29.3)"/><path class="cls-1" d="M212.3,859.52" transform="translate(-201.88 -29.3)"/><path class="cls-1" d="M503.33,1269.85" transform="translate(-201.88 -29.3)"/><path class="cls-4" d="M647,46.7c5.74-.07,11.53.87,17.17-1a18.69,18.69,0,0,1,9.07-.16h26.42c3.41-.5,6.81-.81,10.2.16,8.25,2,16.75,1,25.12,2.05,9.11,1.19,18.31,1.73,27.33,3.67,21.63,3.94,42,11.78,62.07,20.4,43.27,18.59,81.94,44.09,114.54,78.3A344.38,344.38,0,0,1,999.46,238c17.58,36.18,29.36,74.16,36.43,113.63,8.73,48.65,11.32,97.67,8.82,147a856.57,856.57,0,0,1-14.11,118.76c-1.25,6.48-3.28,12.79-4.77,19.22-4.4,16.19-8.82,32.38-13.15,48.58a29.22,29.22,0,0,0-.5,5.06c-.23,5.52-1,10.93-3.46,16-1.32,1.33-1.14,3-1,4.63a15.69,15.69,0,0,1-2.44,10.2,322.92,322.92,0,0,0-9.09,36.51,73,73,0,0,1-5.75,20.53,11.69,11.69,0,0,0-2.24,6.85,101.8,101.8,0,0,1-9.14,27.43c-1.87,4-3.74,8.08-4.55,12.5-.42,5.82-3.69,10.32-6.86,14.87a319.91,319.91,0,0,1-44.47,53.69c-22.88,22.47-47.66,42.72-72.77,62.58-9.06,7.17-18.22,14.21-27.39,21.23a8.82,8.82,0,0,0-3.35,6.94c-.3,6.63-2,13.15-1.45,19.83v0c-2.12,8.59-2.27,17.44-3.06,26.17-.69,7.57-2.27,15.13-1.53,22.8a.74.74,0,0,1,.28.8c-.09.26-.19.39-.28.39-.28.48-.85,1-.79,1.43,1.43,10.35-4.53,15.61-12.9,19.73-5.18,2.55-9.87,6.09-14.81,9.13-1.42.87-2.9,1.93-4.62.54a24.84,24.84,0,0,1-5.72-11.45c-4.21-11-10.62-20.88-16.33-31.08-15.59-27.89-32.29-55.12-50.44-81.42-17.19-24.91-35.43-49-55.93-71.39-4.22-4.6-8.12-9.46-13.12-13.27a3.56,3.56,0,0,1-3.54-3.54c-11.1-12.54-24.08-22.89-37.56-32.71-2.44-1.77-4.39-.61-6.38-.12-12.85,3.18-25.7,6.36-38.45,9.93-9.31,2.6-18.41-.24-27.6-.4-5.84-.11-11.65-1.15-17.48-1.65-5.33-.45-8.76,3.48-12.32,6.28-17.6,13.86-31.11,31.36-43.14,50.08a4.81,4.81,0,0,0-.33,1.66A64.87,64.87,0,0,1,444,920.81c-5.31,9-9.92,18.31-12.53,28.49a98.38,98.38,0,0,1-6.89,20.53c-4.82,11.55-7,23.81-9.28,36-3.4,17.88-6.84,35.8-6.63,54.14a207.27,207.27,0,0,1,0,31.91,115.51,115.51,0,0,0,.49,15.39q-7.08-12.32-14.15-24.62a31,31,0,0,1-7-13.54A84.92,84.92,0,0,0,362.19,1028a520.76,520.76,0,0,1-53.64-54.8c-.85-1-1.68-2-2.52-3-11.52-29.85-17-61-20.11-92.68-2.46-25.16-4.11-50.42-3.12-75.67,1-25.8,1.1-51.64,3-77.42.75-10,.7-20.11,1.15-30.17q2.32-53,1.18-106a289.13,289.13,0,0,0-4.38-45.91c-2.23-12.14-.35-24.32.39-36.36,1.94-31.51,6.76-62.7,13.09-93.64a1431.11,1431.11,0,0,1,61.65-214.62A138.61,138.61,0,0,1,374,168.35c2.06-2.1,3.7-4.6,6.06-6.43,3.78-7.69,10.69-12.6,16.77-18.06,23.34-20.94,49.47-37.83,77.5-51.81,8.43-4.2,17-8.07,25.55-12.1,3.94-2.18,7.8-4.58,12.54-4.6,14.34-4.36,28.44-9.51,43-13.16,4.7-1.18,9.58-1.76,14-3.93,3.13-2.13,6.65-2.51,10.31-2.3,13.9-2.08,27.82-4.11,41.71-6.25,7.74-1.19,15.67-.87,23.31-2.85A1.73,1.73,0,0,1,647,46.7Z" transform="translate(-201.88 -29.3)"/><path class="cls-5" d="M1025.83,636.69c2-11.48,3.8-23,5.94-34.44,4.19-22.4,6.73-45,9-67.66a723.92,723.92,0,0,0,3.26-87.1,616.26,616.26,0,0,0-9.88-97,444.76,444.76,0,0,0-23.35-83.24c-12.89-32.86-29.75-63.6-51.66-91.47-28.21-35.89-62.49-64.39-102.45-86.42C827.16,73.08,796,61.29,763.61,52.43c-.5-.13-.88-.65-1.32-1,10.62-.58,21,1.89,31.2,3.86,35.26,6.8,68.81,18.85,100.82,35.06A335.75,335.75,0,0,1,963,136.2a322.23,322.23,0,0,1,56.29,63.54A358.22,358.22,0,0,1,1057,273.3a466,466,0,0,1,23.09,84.56c2.81,15.94,5.33,32,6.16,48.2.07,1.32-.14,2.69,1.07,3.67.49,2.61,1.19,5.21.16,7.85,1.65,24,.81,48,1.14,72,1.11,4.14-.17,8.26-.14,12.4-2.15,2.89-.67,6.18-1,9.27,1,3,0,6-.16,9-1.84,5.4-1.57,11.09-2.13,16.64-1.93,19.31-4.4,38.54-7.83,57.65-.85,4.74-4,8.07-6.07,12.05-4,7.73-8.24,15.36-11.53,23.47-1.17,2.86-.5,3.83,2.29,4.89,11.07,4.21,10.27,3.94,15.5-6.54,8.77-17.59,18.29-34.76,34.1-47.57,19.27-15.61,42.43-5.91,49.82,14.89,3.85,10.81,4.74,22.09,5.77,33.36.14,1.47-.33,3.09,1.08,4.24.49,2.6,1.19,5.21.16,7.85.33,9.25,1.14,18.53,3.49,27.44,3.86,14.65,1.89,28.86-1.77,43.07-8.21,31.81-22.37,61-38.81,89.3-2.47,4.25-5.12,8.39-7.54,12.68-9.55,16.94-22.36,29.8-42.16,34a14.69,14.69,0,0,1-9.13,0c-11.94-2.07-22.29-6.73-28.64-17.8a13.85,13.85,0,0,1-1.66-3c-2.74-9.67-7.48-18.94-6.29-29.45a23.34,23.34,0,0,1,0-10.12c2.52-5.82.79-11.94,1.18-17.9.23-3.58,0-7.18,0-10.77a25,25,0,0,1,.13-11.34c2.22-3.48.92-7.34,1-11,.21-7,0-14,0-21a123,123,0,0,1,0-23.81c0-22.52-3.87-44.61-7.32-67.81C1027.73,628.24,1028.75,633.27,1025.83,636.69Z" transform="translate(-201.88 -29.3)"/><path class="cls-6" d="M609.47,893.35c31.47,21.55,52.07,52.3,71.25,84.22,6.12,10.2,11.82,20.65,17.71,31a138.55,138.55,0,0,1,13.7,27.42c.79,4.67,3.09,8.66,5.7,12.51,2.65,3.47,3.82,7.65,5.58,11.56l0-.06c1,3,3.41,5.49,3.41,8.89-1.28.53-2.27-.3-3.35-.73-1.47.32-2.38-.51-3.41-1.69a8.31,8.31,0,0,1,1.51,4.78c.44,1.29.77,2.65,2,3.49,5.11,7.78,9.61,15.85,11.42,25.13,1.13,5.13,2.56,10.22,3.32,15.41,2.25,15.47-5.42,25.44-18.46,32.27A118.72,118.72,0,0,1,690.05,1158c-1.1.25-2.26.21-3,1.23-2.56,1-5,2.45-7.93,1.3-16,2.19-32.24,2.85-48,6.66a20.26,20.26,0,0,1-8.16,2.33c1.48.15,3.39-.55,4.79,1.1,3.32,1.65,6.88.89,10.35,1a3.18,3.18,0,0,1,3.36.16c3.3,1.78,6.85,1,10.33,1a3.18,3.18,0,0,1,3.36.16c2.44,1.95,5.41.26,8.17,1.22-.13,2.24-2.87,1.81-3.59,3.38-9,5.71-18.31,10.65-28.55,13.7-8,2.62-15.91,5.51-24,7.8-12.67,3.58-18.49,1.18-25.71-9.8a10.58,10.58,0,0,0-1.56-1.58c-1.05-1.28-2.17-2.54-1.58-4.4-6.72-1.79-13.45-1.39-20.17,0-5-.29-6,4.76-9.11,6.9-8.6,8.91-18.34,9.18-28.91,3.92a186.6,186.6,0,0,1-19.69-11.18c1.14-2.26,3.95-1.31,5.21-3.06,3.93-2,7.84-4,12.42-3.73l11.71-2.9c-10-2.88-19.9-2.46-29.85-1.86-15.51,1-31,1.69-45.8-4.87-6.08-2.69-10.23-6.85-12.39-13.17-4.72-13.82-4-28.12-2.8-42.21.36-4.25-2.69-6.8-2.08-10.7s.16-7.94.18-11.92a5.19,5.19,0,0,1,.16-4.5c1.73-4.48,1-9.15,1-13.75a3.18,3.18,0,0,1,.16-3.36c1.06-8.37,2.21-16.73,3.16-25.12a482.16,482.16,0,0,1,8-49.69,14.68,14.68,0,0,0,.09-2.82,49.22,49.22,0,0,1,4.72-19.33c4.22-11.1,7.34-22.58,12.23-33.46,5.38-12,11.5-23.46,20.13-33.41,3.06-3.54,7.74-4.62,12.05-6,2.66-.85,5.56-.94,8.05-2.41a6.7,6.7,0,0,1,6.78-1.3L551.21,890a142.81,142.81,0,0,1,28.57,0c6.79,1.8,13.72.84,20.59,1C603.86,890,607,890.41,609.47,893.35Z" transform="translate(-201.88 -29.3)"/><path class="cls-1" d="M375.63,167.93c-22.33,39-33.16,82.29-46.41,124.64C318.44,327,309.67,362,302.16,397.36a949,949,0,0,0-16,103.18c-2.41,24.23.88,47.93,2.67,71.85,2.4,32.14,1.69,64.33.43,96.51q-1.44,36.89-2.72,73.79c-.86,25.77-2.1,51.52-1.9,77.31.32,41.6,3.9,82.81,14.45,123.21,1.9,7.29,4.27,14.47,6.24,21.75.44,1.63,2.23,3.24.66,5.18L294.6,956c-4.08-2.46-5.88-6.81-8.34-10.52a288.71,288.71,0,0,1-22.85-40.34c-.54-1.19-1.3-2.33-.87-3.74-1.62-18.51-3-37.06-2.94-55.64.18-43.82,2.8-87.57,4.36-131.35,1.45-40.57,2.73-81.14-.28-121.69-.45-6.05-1.16-12.09-2.12-18.08-3.5-21.65-.11-43.11,1.6-64.62.18-2.26.34-4.52.52-6.78-.3-10.77,2-21.27,3.7-31.77q5.56-34,13.84-67.52a3.47,3.47,0,0,1,.9-2,19,19,0,0,0,2.09-8.23c1-11.15,4.5-21.79,7.46-32.46,5.82-21,11.64-42,18.32-62.72,7.27-22.54,14.72-45,22.63-67.35a17.34,17.34,0,0,1,3.15-6,6.09,6.09,0,0,0,1.92-3.76A99.79,99.79,0,0,1,355,190.68l6.67-9.24c1.6-3.57,3.57-6.85,7.06-8.92l5.64-5.86C375.47,166.44,376,166.76,375.63,167.93Z" transform="translate(-201.88 -29.3)"/><path class="cls-5" d="M245.58,802c-3.83-.11-4.1-3.69-5.27-5.95-8.22-15.91-13.25-32.9-16.52-50.47a248.73,248.73,0,0,1-4.39-55.77c1-24.75,3.74-49.32,12.36-72.81,1.83-5,3.79-9.92,7.74-13.76,1.69-1.65,3.26-2.35,5.53-1.06,2,1.13,3.78,1.86,4,4.83,1.41,24,1.34,47.94.49,71.92-1,28.43-1.88,56.87-2.89,85.31-.31,8.83-1.41,17.64-1,26.5A28.46,28.46,0,0,1,245.58,802Z" transform="translate(-201.88 -29.3)"/><path class="cls-7" d="M335.77,225.15c-8,23.81-16.42,47.52-24.06,71.46-9.95,31.15-19,62.59-26.49,94.44a21.71,21.71,0,0,1-1,2.64c-2.29.95-1.88,0-1.48-1.72,4-17.47,9.11-34.65,13.91-51.92q9.11-32.73,19.77-65c4.8-14.55,9.8-29,14.85-43.48a50.26,50.26,0,0,1,3.62-7s.37,0,.52.1A1.89,1.89,0,0,1,335.77,225.15Z" transform="translate(-201.88 -29.3)"/><path class="cls-8" d="M282.12,401.92c-2.7,12.91-5.52,25.79-8.06,38.73-3.83,19.46-7.34,39-9.53,58.71a37.52,37.52,0,0,1-.85,3.86c-.75.09-2.07,1.12-1.85-.68,3-24.42,7.1-48.66,12.43-72.68,2-9.16,4-18.34,6-27.5.1-.44.63-.81,1-1.13C281.38,401.19,281.84,401.68,282.12,401.92Z" transform="translate(-201.88 -29.3)"/><path class="cls-9" d="M262.54,901.38c8.75,19.34,19.94,37.25,32.06,54.6-3.26,1-4.17-2.06-5.22-3.7-9.42-14.73-19.08-29.34-26.26-45.37C262.35,905.2,260.27,903.47,262.54,901.38Z" transform="translate(-201.88 -29.3)"/><path class="cls-10" d="M435,1222.66" transform="translate(-201.88 -29.3)"/><path class="cls-11" d="M502.51,1267.38l-11.7-6.82a1.78,1.78,0,0,1,2.5-.26,225,225,0,0,0,42.78,17.61c.16,0,.42.21.41.26a7.7,7.7,0,0,1-.35.95c-5.11-.08-9.49-3-14.47-3.65l-13.82-5.53C505.61,1270.06,504,1268.92,502.51,1267.38Z" transform="translate(-201.88 -29.3)"/><path class="cls-9" d="M285.29,328.65c.49-1.13,1-2.25,1.46-3.37a2.5,2.5,0,0,1,.87,2.56q-5,18.32-10.14,36.6c-.08.29-.36.51-.55.77l-.71-1.36c.34-6.3,3.23-12,4.35-18.11a4.18,4.18,0,0,1-.6-3.42C281.89,337.82,281.57,332.44,285.29,328.65Z" transform="translate(-201.88 -29.3)"/><path class="cls-12" d="M579.78,890H535.43v-1h60l0,1Z" transform="translate(-201.88 -29.3)"/><path class="cls-13" d="M355,190.68c-6.1,10-12.16,20.13-17.34,30.71-1.73-1.65-.43-3.15.26-4.63,4.2-8.93,9.4-17.29,14.57-25.67C353.25,189.9,354,189.32,355,190.68Z" transform="translate(-201.88 -29.3)"/><path class="cls-11" d="M260.28,431.24l2.55-15.51c1.72-3.34,1.91-7,2.48-10.63,2.14.53,1.68,1.88,1.32,3.49-1.86,8.36-3.59,16.74-5.38,25.18C260,433.16,260.47,432.08,260.28,431.24Z" transform="translate(-201.88 -29.3)"/><path class="cls-14" d="M631.11,1191.18l28.55-13.7c.8.77.34,1.43-.35,1.76q-13.12,6.36-26.28,12.62A1.49,1.49,0,0,1,631.11,1191.18Z" transform="translate(-201.88 -29.3)"/><path class="cls-14" d="M712.13,1036q-6.84-13.71-13.7-27.42c1.2-1,1.68.09,2.06.84,4.06,8,8.06,16.1,12.09,24.14A1.69,1.69,0,0,1,712.13,1036Z" transform="translate(-201.88 -29.3)"/><path class="cls-15" d="M979.08,812.45q4.56-13.71,9.14-27.43c.33.63,1.06,1.4.91,1.88-2.82,8.68-5.74,17.34-8.66,26-.1.3-.41.53-.63.8Z" transform="translate(-201.88 -29.3)"/><path class="cls-14" d="M735,1099.86c-3.07-8.71-7.64-16.74-11.42-25.13a4.29,4.29,0,0,1,1-.35c4.65,7.78,9.18,15.63,11.13,24.63C735.66,1099.23,735.18,1099.57,735,1099.86Z" transform="translate(-201.88 -29.3)"/><path class="cls-16" d="M627.68,1170.6h-8a18.51,18.51,0,0,1,11.42-3.43c.74.1,2.07.09,2.11.31.31,1.77-2.06,0-2,1.72l3.68.63C632.37,1171.75,629.89,1169.48,627.68,1170.6Z" transform="translate(-201.88 -29.3)"/><path class="cls-12" d="M408.68,1091.86q-.75-16,0-31.91c2.37,7.66.64,15.51,1,23.27C409.8,1086.06,410.82,1089.2,408.68,1091.86Z" transform="translate(-201.88 -29.3)"/><path class="cls-17" d="M990.46,778.17q2.88-10.27,5.75-20.53c1.93,4.07-.8,7.47-1.67,11.11-.83,3.46-2,6.85-3,10.26,0,.14-.19.24-.29.36C991,779,990.72,778.57,990.46,778.17Z" transform="translate(-201.88 -29.3)"/><ellipse class="cls-12" cx="900.96" cy="433.38" rx="0.36" ry="19.95"/><path class="cls-18" d="M454.26,969.81q-2.36,9.66-4.72,19.33c-2.52-3.61.25-6.86.82-10.21a102.43,102.43,0,0,1,2.76-10.34c.14-.48,0-2,1-.45C454.38,968.56,454.22,969.25,454.26,969.81Z" transform="translate(-201.88 -29.3)"/><path class="cls-15" d="M424.6,969.83a124.75,124.75,0,0,1,6.89-20.53c0,7.83-4.05,14.5-6.11,21.73,0,0-.42,0-.46-.12A7.5,7.5,0,0,1,424.6,969.83Z" transform="translate(-201.88 -29.3)"/><path class="cls-15" d="M1008.72,706.3q1.72-8,3.46-16c1.89,6.49-1.78,12.18-2.59,18.28-.25-.21-.65-.38-.72-.64A9.18,9.18,0,0,1,1008.72,706.3Z" transform="translate(-201.88 -29.3)"/><path class="cls-12" d="M1038.29,691.53v23.81A55,55,0,0,1,1038.29,691.53Z" transform="translate(-201.88 -29.3)"/><path class="cls-19" d="M975.53,126.77l5.83,4.44,4.5,4.9C981.73,135.62,975.7,130.17,975.53,126.77Z" transform="translate(-201.88 -29.3)"/><path class="cls-20" d="M578.26,1183.2c.52,1.46,1,2.93,1.58,4.4-5.16-5.67-12.22-2.29-18.25-4.4Z" transform="translate(-201.88 -29.3)"/><path class="cls-21" d="M444,920.81A71.31,71.31,0,0,1,452.18,906,23.89,23.89,0,0,1,444,920.81Z" transform="translate(-201.88 -29.3)"/><path class="cls-18" d="M967.67,839.82q3.44-7.44,6.86-14.87C975.44,828.89,971.43,837.57,967.67,839.82Z" transform="translate(-201.88 -29.3)"/><path class="cls-22" d="M388.05,1069.09q3.48,6.78,7,13.54c-2.88.95-2.84-1.84-3.27-3.06C390.51,1076.08,386.69,1073.47,388.05,1069.09Z" transform="translate(-201.88 -29.3)"/><path class="cls-12" d="M673.22,45.56l-9.07.16H652.92C659.7,45.18,666.49,43.38,673.22,45.56Z" transform="translate(-201.88 -29.3)"/><path class="cls-12" d="M709.84,45.72l-10.21-.16c6.64-2.21,13.42-.19,20.17.16Z" transform="translate(-201.88 -29.3)"/><path class="cls-11" d="M368.76,172.52l-7.06,8.92C362,176.81,363.85,173.47,368.76,172.52Z" transform="translate(-201.88 -29.3)"/><path class="cls-23" d="M1053.18,858.31l-2.23-1.56c4.38-1.17,7.62,2.21,11.59,3.27l-2.63.34Z" transform="translate(-201.88 -29.3)"/><path class="cls-14" d="M774.8,1073.65l5.72,11.45A12,12,0,0,1,774.8,1073.65Z" transform="translate(-201.88 -29.3)"/><path class="cls-22" d="M518,1176l-12.42,3.73a5,5,0,0,1-.56-.09,4.65,4.65,0,0,1-.52-.2C508.79,1177.43,512.82,1174.43,518,1176Z" transform="translate(-201.88 -29.3)"/><path class="cls-15" d="M549,1190.06c2.32-3.25,3-8.63,9.11-6.9C554,1184.11,553,1189.11,549,1190.06Z" transform="translate(-201.88 -29.3)"/><path class="cls-15" d="M721.53,1071.24l-5.55-9c3.93,1.42,5.34,4.11,7.45,5.91C722.8,1069.18,722.17,1070.21,721.53,1071.24Z" transform="translate(-201.88 -29.3)"/><path class="cls-22" d="M1088.52,502c-1.39-4.15.36-8.27.14-12.41,2.22,4.27.57,8.83,1,13.23,0,.1-.23.22-.35.32Z" transform="translate(-201.88 -29.3)"/><path class="cls-17" d="M512.43,75.35,499.89,80C503.39,76.57,507.25,74.16,512.43,75.35Z" transform="translate(-201.88 -29.3)"/><path class="cls-18" d="M579.74,56l-10.31,2.3a8.21,8.21,0,0,1-1.66-.13c-.44-.14-1.21-.7-.14-.91C571.62,56.44,575.45,53.91,579.74,56Z" transform="translate(-201.88 -29.3)"/><path class="cls-17" d="M723.41,1060.05c-3-3.31-4-7.6-5.58-11.56C721.56,1051.44,722.78,1055.6,723.41,1060.05Z" transform="translate(-201.88 -29.3)"/><path class="cls-17" d="M726.78,1068.88c-1.4-2.86-3.5-5.46-3.41-8.89,2.77,2.52,3.56,6.18,5.28,9.3.34.63.35,1.73-.84,1.41C727.34,1070.57,727.12,1069.51,726.78,1068.88Z" transform="translate(-201.88 -29.3)"/><path class="cls-12" d="M1103.52,486.3l-.28,13.53c-2.36-4.46-.87-9.11-.68-13.7,0-.05.33-.16.48-.13A1.91,1.91,0,0,1,1103.52,486.3Z" transform="translate(-201.88 -29.3)"/><path class="cls-24" d="M1005.3,721.13q1.22-5.1,2.44-10.2c2.31,4.34-1.22,8-1.47,12-.06,1.06-.72.2-.83-.2A8,8,0,0,1,1005.3,721.13Z" transform="translate(-201.88 -29.3)"/><path class="cls-12" d="M244.05,846.61c.12-3.8.24-7.59.35-11.39a22.5,22.5,0,0,1,.13,14.76Z" transform="translate(-201.88 -29.3)"/><path class="cls-25" d="M1056.57,234a25.4,25.4,0,0,1,3.64,7.67C1056.74,240.17,1055.84,237.46,1056.57,234Z" transform="translate(-201.88 -29.3)"/><path class="cls-12" d="M655.08,1172.88l-3.36-.16c3.94-2,8.09-.45,12.2.16Z" transform="translate(-201.88 -29.3)"/><path class="cls-12" d="M437.14,1083.88c-.05,1.5-.11,3-.16,4.5-2-3.56-.49-7.34.16-11.11Z" transform="translate(-201.88 -29.3)"/><path class="cls-12" d="M576.67,1282.69h9.89v.53h-10Z" transform="translate(-201.88 -29.3)"/><path class="cls-22" d="M1087.36,520.26c-1.29-3,.38-6,.16-9,2,2.86.92,6,.77,9,0,.07-.29.2-.43.19A1.5,1.5,0,0,1,1087.36,520.26Z" transform="translate(-201.88 -29.3)"/><path class="cls-22" d="M609.47,893.35a22.55,22.55,0,0,0-9.1-2.41C604,889.39,607.41,888.88,609.47,893.35Z" transform="translate(-201.88 -29.3)"/><path class="cls-12" d="M641.39,1171.74l-3.36-.16c3.56-2,7.34-.5,11.09.16Z" transform="translate(-201.88 -29.3)"/><path class="cls-12" d="M245.58,802c0-3.75,0-7.51,0-11.26A13.1,13.1,0,0,1,245.58,802Z" transform="translate(-201.88 -29.3)"/><path class="cls-12" d="M1037.28,747.35c0,3.78-.09,7.56-.13,11.34A12.9,12.9,0,0,1,1037.28,747.35Z" transform="translate(-201.88 -29.3)"/><path class="cls-20" d="M513.5,893.22l-6.78,1.3a7.63,7.63,0,0,1-1.67-.15c-.45-.14-1.16-.82-.1-.86C507.8,893.38,510.58,890.73,513.5,893.22Z" transform="translate(-201.88 -29.3)"/><path class="cls-12" d="M813.64,1054.27v-1.19c2.38,2.8.55,6,0,9Z" transform="translate(-201.88 -29.3)"/><path class="cls-20" d="M513.52,1172.6h-9v-.54h9Z" transform="translate(-201.88 -29.3)"/><path class="cls-26" d="M375.63,167.93l-1.23-1.27c1.7-1.81,2.32-4.91,5.67-4.74Z" transform="translate(-201.88 -29.3)"/><path class="cls-20" d="M679.09,1160.51l7.93-1.3c.18,0,.42,0,.55.1a4.57,4.57,0,0,1,.58.72C685.13,1160.24,682.25,1163,679.09,1160.51Z" transform="translate(-201.88 -29.3)"/><path class="cls-12" d="M435.09,1106.57v-8.65l.49,0v8.49Z" transform="translate(-201.88 -29.3)"/><path class="cls-12" d="M1036,787.36v10.12A11,11,0,0,1,1036,787.36Z" transform="translate(-201.88 -29.3)"/><path class="cls-20" d="M1168.52,641.19c0-2.62-.11-5.24-.16-7.85C1170.58,635.91,1170,638.54,1168.52,641.19Z" transform="translate(-201.88 -29.3)"/><path class="cls-20" d="M1087.52,417.58c0-2.62-.11-5.23-.16-7.85C1089.58,412.3,1089,414.93,1087.52,417.58Z" transform="translate(-201.88 -29.3)"/><path class="cls-20" d="M612.55,1282.21H605v-.57h7.59Z" transform="translate(-201.88 -29.3)"/><path class="cls-12" d="M647,46.7l-2.22.16h-5.57C641.82,45.73,644.45,45,647,46.7Z" transform="translate(-201.88 -29.3)"/><path class="cls-12" d="M1072.6,847.7h9.13A8.24,8.24,0,0,1,1072.6,847.7Z" transform="translate(-201.88 -29.3)"/><path class="cls-12" d="M818,1018v8A10.09,10.09,0,0,1,818,1018Z" transform="translate(-201.88 -29.3)"/><path class="cls-12" d="M262.81,683.19v-6.42h.57v6.51Z" transform="translate(-201.88 -29.3)"/><path class="cls-12" d="M818.24,1004.09c2,2.06.86,4.4,0,6.7v-6.7Z" transform="translate(-201.88 -29.3)"/><path class="cls-12" d="M816.55,1029.92a8.71,8.71,0,0,1-.12,6.41A8.92,8.92,0,0,1,816.55,1029.92Z" transform="translate(-201.88 -29.3)"/><path class="cls-12" d="M438.28,1066.77c0,1.12-.11,2.24-.16,3.36-1.86-2.1-.47-4.5-1.27-7.26C438.83,1064.26,438,1065.64,438.28,1066.77Z" transform="translate(-201.88 -29.3)"/><path class="cls-12" d="M635.44,873l3.54,3.54C636,876.91,635,875.92,635.44,873Z" transform="translate(-201.88 -29.3)"/><path class="cls-12" d="M248.75,578.5c.07,3.36.59,5.17-.47,7.12A9.68,9.68,0,0,1,248.75,578.5Z" transform="translate(-201.88 -29.3)"/><path class="cls-1" d="M229.5,876.28l0,0" transform="translate(-201.88 -29.3)"/><path class="cls-1" d="M229.53,859.15" transform="translate(-201.88 -29.3)"/><path class="cls-1" d="M212.39,859.15" transform="translate(-201.88 -29.3)"/><path class="cls-1" d="M229.5,910.51l0,0" transform="translate(-201.88 -29.3)"/><path class="cls-1" d="M229.53,927.62l0,0" transform="translate(-201.88 -29.3)"/><path class="cls-3" d="M469.1,1252.74" transform="translate(-201.88 -29.3)"/><path class="cls-2" d="M407.51,554.56c12.95-2.92,25.7-1.38,38.41,1.68,18.48,4.45,34.7,13.47,50,24.4,1.09.78,2.78,1.42,2.38,2.82-1.38,4.73.26,9.81-1.84,14.42a4.17,4.17,0,0,1-.54-3.28c.1,1.29-.4,3.39.37,5.49a147.45,147.45,0,0,1-2.12,25.17,8.37,8.37,0,0,1-.52-4.88c.14,1.5-.46,4.28.36,7.09v11c4.82-9.5,5.48-18.76,9.29-26.91,3-4.43,2.48-10,4.78-14.93,2.72,1.13,2.3,3.45,1.9,5.51-1.51,7.75-2.1,15.63-3.78,23.35-.4,1.81-.92,3.68,0,5.53a3.28,3.28,0,0,1-.76,3.74c-2.85,4-2.86,8.93-4.2,13.4-7,23.26-15.14,46-27.06,67.26-1.47,2.62-3.11,5.24-3.18,8.41-1.88,7.32-7.85,12.36-11,19.54,5,.52,9.69.12,14.38.1,14,0,28,0,42-.07,25.24-.34,49.91,3.72,74.3,9.81a9.94,9.94,0,0,1,4.61,2.08c1.33,4.62-2.2,3.47-4.16,3.09a258.88,258.88,0,0,0-26.59-3.2,380.24,380.24,0,0,0-61.49-.06,421.67,421.67,0,0,0-44.11,5.47c-7.64,1.4-8.05,2.54-3.28,8.86,10.3,13.65,24.41,22.11,39.84,28.57,11.95,5,24.22,9,37.14,10.75a9.27,9.27,0,0,1,3.24,1.05,7.76,7.76,0,0,0,8.36-.23c15.09-3.73,30.28-7,45.34-10.85,19.3-4.94,38.53-10.12,57.84-15,2.37-.6,4.69-1.69,7.19-.52a1,1,0,0,1,.38,1.55c-13.59,5.57-26.9,11.85-41,16.13a25.8,25.8,0,0,0-12.59,4.58c-.84,1.24-2.11,1.17-3.38,1.12-3.32.45-6.63.92-9.17,3.44-15.66,6.17-31.54,11.72-48.29,14a32.82,32.82,0,0,1-15.47-1.44,7.85,7.85,0,0,1,4.67-.44c-.8.14-2.77-.65-4.69.42a85.38,85.38,0,0,1-30.84-7.94c-4.79-2.29-9.45-4.87-14.71-6-22.7-10.07-40.19-25.17-47.61-49.81-.7-2.33-1.9-4.76.36-7.41,12.06-14.1,22.2-29.6,32.32-45.1a95,95,0,0,0,13.7-26.27,19.63,19.63,0,0,1,3.3-7c2.37-2.6,3.35-5.91,4.55-9.1l0,.07c.79-2.66,3.56-4.69,2.46-7.93-1-2.25-2.35-.42-3.55-.22-4.22,1.15-8.17,2.79-11.38,5.88-1.52,1.69-3.53,2.14-5.67,2.26-6.27.85-11.94,3.87-18.1,5.1-.74.15-1.16.44-.44.19,0,0,.2.3.3.45-18.82,5.34-37.6,4.33-56.29-.52-5.6-1.45-11-3.53-16.55-5.32-.09-2,1.53-1.95,2.81-2.29,13.57,3,27.41,1.17,41.07,2.25,6.9,2.69,13.48.05,19.95-1.65,7.8-2.06,15.62-4.36,22.33-9.18,4.71-4.34,10.63-6.87,15.7-10.66A7.85,7.85,0,0,0,480,637c-.56-11.35,1.35-22.61,1.24-33.94a8.08,8.08,0,0,1,.09-2.83c3.59-9.65-2.51-13.67-9.79-17.05-.86-.4-1.69-.85-2.52-1.31-29.5-16.54-59.68-20.88-91-5a9,9,0,0,0-3.89,3.21c-2.3,3.46-5.71,5.44-9.43,7-3.57.47-5.6,2.78-6.93,5.89a18.8,18.8,0,0,1-8.1,8c-3.9,2.32-2.29,6-2.13,9.2.11,2,1,4,1.32,6.07.33,2.29-.42,3.68-3,3.29-2.7-4.84-3.63-10.29-5.34-15.48a4.67,4.67,0,0,1,.7-4.28c10.45-16.24,23.85-29.28,41.2-38a7.35,7.35,0,0,1,2.24-.33,47.48,47.48,0,0,0,12.54-4.61c.88-1.19,2.15-1.16,3.44-1.09,3.07,1.79,5.88-1.89,9-.46.45.21.85-.61.23-.32A2.16,2.16,0,0,1,407.51,554.56Z" transform="translate(-201.88 -29.3)"/><path class="cls-2" d="M701.78,406.21c-26.16,15.34-50.68,33.24-76.58,49-1.83,1.12-3.78,4-5.76,2.53-1.8-1.35-.8-4.59-.85-7,.55-9.47.47-18.94.12-28.42a27.27,27.27,0,0,1,2.12-12.61c-.76-.07,1,0,.37.44s-.37,1.21-.15.51c.68-2.12,2.11-4.11,1.22-6.53,3.92-4.83,9.73-6.94,14.82-10,7.25-4.38,14.44-9,22.54-11.77,7.4-1.75,13.55-6.39,20.6-9,3.46-1.28,7.29-2.09,10.19-4.71,20.06-8.62,40.87-13.73,62.81-12.33,14.35.92,26.22,8.37,37.39,16.61a164.29,164.29,0,0,1,46.65,52.79c3.5,6.3,6.42,13.24,5.53,22.23-4.88-4.33-9-7.94-13.13-11.65-14.47-13.14-30-24.88-47.16-34.28-18.3-10-37.36-13-57.37-5.36a14.24,14.24,0,0,1-2.8.47c-3.24-1.1-5.28,1.66-7.92,2.47l.06-.05C710,401.26,705.36,402.75,701.78,406.21Z" transform="translate(-201.88 -29.3)"/><path class="cls-5" d="M655.06,783.82c-10.25,2.48-20.54,4.83-30.76,7.47-26.09,6.72-52,14.28-78.55,19-.49.09-.91.62-1.36,1a14.83,14.83,0,0,1-9.13,0c-10-2.42-20.17-4.24-29.94-7.79-13.07-4.75-25.72-10.33-36.75-18.83-7-5.41-13.39-11.72-17.59-19.79-1.19-2.29-1.9-3.69,2-4.47A427,427,0,0,1,515.85,753c22.19-1.07,44.25.13,66.31,2.29,4.52.44,8.81,3.59,13.58,1.25,1.86-1.79,3.86-.75,5.79-.22,8.66,2.39,17.21,5.08,25.19,9.33,2.35,3.09,6.27,2.9,9.38,4.43,7.53,3.73,15.46,6.66,22.47,11.42C658.07,783.28,656.37,783.25,655.06,783.82Z" transform="translate(-201.88 -29.3)"/><path class="cls-2" d="M326.8,447.45c5.51-15.69,14.34-29.46,24.57-42.41a103.92,103.92,0,0,1,14.62-15,44.7,44.7,0,0,1,30.71-11,125.64,125.64,0,0,1,48.38,10.11,39.19,39.19,0,0,0,14.75,6c9.56,3.22,18.19,8.3,26.91,13.23,1.36.78,1.67,1.92,2,3.21a171.43,171.43,0,0,1,5,55.52l-6.29-5c-2.65-3.49-6.28-5.47-10.39-6.72L456.61,445a9,9,0,0,0-6.89-3.44c-6.13-2.26-12.21-4.65-18.39-6.74-8.28-2.8-16.64-5.38-25-8.06-4.71-2.07-9.54-3.46-14.76-2.44-16.44-.81-28.94,7.2-40.35,17.85a196.19,196.19,0,0,0-29.4,35.36c-2.68-4.64-2.64-7.52.08-15.38,2.07-1.43,1.27-4,2.19-5.82l-.05.07C325.41,453.55,326.91,450.75,326.8,447.45Z" transform="translate(-201.88 -29.3)"/><path class="cls-1" d="M813.13,609.22c-7.4,11.41-18.39,18.85-29.19,26.52-2.16.44-4.4.62-6.44,1.56-10.73,2.63-21.78,3.22-32.65,3-20.08-.35-40-2.75-59-10.1-6.74-2.61-10.92-5.8-11-14.2-.15-12.06-3.39-23.91-5-35.89,1.88-5.44,7-8.16,10.47-12.25,1.45-1.71,3.13-3.23,4.73-4.81a191.06,191.06,0,0,1,16.27-12c1.52-.82,3-1.67,4.53-2.5,23.74-13,47.7-12,71.82-1.16a165.26,165.26,0,0,1,45.8,33.77c5.85,6.22,5.85,6.22.34,14.44-1.35,1.55-2.53,3.24-3.77,4.88a25,25,0,0,1-2.83,3.49C816,605.82,815.11,608,813.13,609.22Z" transform="translate(-201.88 -29.3)"/><path class="cls-1" d="M479.35,643.52l-16.29,10.12a83.3,83.3,0,0,1-40.75,11.53,223.09,223.09,0,0,1-31.24-.3c-4-.28-7.88-1.4-11.82-2.14-1.89-.77-4,.26-5.88-.75-6.89-5.06-9.48-13.4-14.91-19.58-1.24-1.2-1.33-3-2.33-4.34L355,636.73c-5.09-9.6-6.61-20.13-8-30.69-.3-2.3-.44-4.59,2.45-5.5l8-8.29c1.6-2.64,3.43-5,6.67-5.82l9.47-6.62c13.7-9.88,29.24-13.74,45.85-13.4,17.55.37,33.66,6.16,49,14.33,3.78,2.18,7.66,4.19,11.21,6.73,2,1.4,3.35,3,3.11,5.67-1.47,16.06-1.87,32.17-2.68,48.26A4,4,0,0,1,479.35,643.52Z" transform="translate(-201.88 -29.3)"/><path class="cls-1" d="M626.72,765.65c-8.16-2.57-16.29-5.19-24.47-7.69-2.11-.64-4.15-1.84-6.51-1.42A290.13,290.13,0,0,0,517.36,745a436.65,436.65,0,0,0-45.19,0H456.75c4.59-7.32,9.85-13.94,13.46-21.56.47-2.88,2.05-5.29,3.41-7.74,14.09-25.2,23.58-52.14,30.3-80.12a1.72,1.72,0,0,1,.67-.88,4,4,0,0,0,1-3.66c1.58-11.13,1.88-22.48,5.84-33.19a139.56,139.56,0,0,0,5.76-24.87c1-.34,1.5,0,1.17,1.08-3.45,42.23-7.89,84.34-17.51,125.71a168.48,168.48,0,0,1-6.59,20.45c-1.07,2.9-1.21,3.83,2.36,4A302.39,302.39,0,0,1,571,738.42a227.15,227.15,0,0,1,53.82,25.18A11.3,11.3,0,0,1,626.72,765.65Z" transform="translate(-201.88 -29.3)"/><path class="cls-2" d="M686,563.74l-14.93,14.89c-1.24,1-1.29,2.24-1,3.6a198.82,198.82,0,0,1,5.46,39.14c.14,3.77,2.83,5.08,5.66,6.3a140.23,140.23,0,0,0,34.79,10,242.57,242.57,0,0,0,29.27,2.47,28.15,28.15,0,0,0,8.45-.77c2.1-.6,4.5-1,6.42,1.31-1.48,1.78-3.75,1.47-5.55,2.23-.07,0-.48-.08-.21.13s.68.24,1,.51a50.66,50.66,0,0,1-16,2.13c-10-.7-20,.09-29.95-.4-2.08-.39-3.94-1.82-5.85-1.16.87.33,2.22-.21,3.47.22a1.11,1.11,0,0,1,.49,1.34,30.45,30.45,0,0,1-13.64-2.14c1.42-.66,2.84-1,3.63-.43-2.44.79-5.09-1.84-8.24-.73-8.85-1-16.66-4.78-24.37-8.89a3,3,0,0,1-1.76-2.69q-.55-8.49-1.1-17c1.31-3-.31-5.78-.66-8.66,0-.35.21-.69-.32-.8-.08,0-.22.26-.33.41l-6.6-27.92a3.35,3.35,0,0,1,.89-3.11c12.3-14.13,25-27.79,42.35-36,5.93-1.74,11.45-4.44,17-7.15,15.59-5.09,31.17-5.66,46.76,0,2.37,1.67,4.92,2.8,7.92,2.44a2.2,2.2,0,0,1,2.31,1,22.36,22.36,0,0,0,11.44,5.72c13.39,7.09,24.33,17.14,34.12,28.52,2.82,3.29,6,6.34,7.94,10.3a2.84,2.84,0,0,1-2.06,3.2c-13.51-12.82-28.13-24.13-44.63-32.89C757,536.44,724.8,536.1,705.33,550a5.7,5.7,0,0,1-3.54,2.09A37.48,37.48,0,0,0,686,563.74Z" transform="translate(-201.88 -29.3)"/><path class="cls-27" d="M755.39,643.52H751l-.07-.67,7.77-1.85v-.79a45.92,45.92,0,0,0-5,0c-1.67.17-3.31,1-5,1a179.92,179.92,0,0,1-68.86-12.82c-3.52-1.41-5.44-4.1-5.53-8.38a179.87,179.87,0,0,0-5-36.85c-.74-3.17-.74-3.17,1.74-4.53,1.63,12.19,5.29,24.23,5,36.51-.2,8.81,4.19,11.48,11.17,14,23.63,8.48,47.93,10.6,72.75,9,6.05-.4,12.09-1,18.13-1.49.82-.47,1.59-.61,2.26.26C772.41,640.31,763.87,641.79,755.39,643.52Z" transform="translate(-201.88 -29.3)"/><path class="cls-28" d="M511.38,597.8c-2.13,11-2.6,22.35-5.84,33.19-2.23.91-1.84,0-1.51-1.72,1.76-9.57,3.32-19.19,4.9-28.8a24.91,24.91,0,0,0-.24-4.11c-1.69,6.36-3,11.22-4.29,16.09,0,.13-.2.23-.31.34l-.78-1.21c3-13.3,6.56-26.47,8.26-40.08C513.17,580.36,510.8,589.05,511.38,597.8Z" transform="translate(-201.88 -29.3)"/><path class="cls-29" d="M349.45,600.54c-1.76,2-2,4.18-1.51,6.77,1.53,8.73,3.33,17.37,6.59,25.65.5,1.26,1.06,2.42.44,3.77-4.68-4.85-6.16-11.4-9.08-17.18.83-1.31,2.49-1.93,1.51-4.36a22.54,22.54,0,0,1-1.51-11C346.14,602,346.24,599.74,349.45,600.54Z" transform="translate(-201.88 -29.3)"/><path class="cls-30" d="M822.81,581.78l2.06-3.2c7.68,9.24,7.68,9.24-1.07,18.13-1,.26-1.57.07-1.06-1.12.22-.51.31-1.17.69-1.51C828.38,589.7,827.34,585.66,822.81,581.78Z" transform="translate(-201.88 -29.3)"/><path class="cls-14" d="M690.42,368.59c.23,2.14-1.77,1.86-2.84,2.48-1.27.74-2.81,1-4.16,1.63-6.29,2.91-12.53,5.94-18.86,8.75-1.49.66-2.9,2.88-4.93.87A185.55,185.55,0,0,1,690.42,368.59Z" transform="translate(-201.88 -29.3)"/><path class="cls-14" d="M478.26,680.06c.27.46.87,1.08.74,1.36-4,8.67-7.94,17.41-13.5,25.27-.05.07-.62-.23-.94-.36Q471.42,693.21,478.26,680.06Z" transform="translate(-201.88 -29.3)"/><path class="cls-24" d="M707.55,645.65c0-.33,0-.65,0-1h0c8.84,0,17.67,0,26.5,0,1.81,0,3.8-.62,5.36.95A134,134,0,0,1,707.55,645.65Z" transform="translate(-201.88 -29.3)"/><path class="cls-22" d="M618.71,422.29a79.59,79.59,0,0,1-.12,28.42A106.89,106.89,0,0,1,618.71,422.29Z" transform="translate(-201.88 -29.3)"/><path class="cls-15" d="M449.69,669.77a8.21,8.21,0,0,1-1.66-.14c-.27-.08-.45-.46-.67-.71,7.08-.68,13.24-5.25,20.57-4.89A74.28,74.28,0,0,1,449.69,669.77Z" transform="translate(-201.88 -29.3)"/><path class="cls-17" d="M714.38,530.59a34.83,34.83,0,0,1-17,7.15A67.63,67.63,0,0,1,714.38,530.59Z" transform="translate(-201.88 -29.3)"/><path class="cls-18" d="M459.83,395.13a19,19,0,0,1-14.75-6Z" transform="translate(-201.88 -29.3)"/><path class="cls-14" d="M601.37,805.52l-1.09-.28c4.26-2.39,8.27-5.57,13.68-4.3Z" transform="translate(-201.88 -29.3)"/><path class="cls-22" d="M391.6,424.33c5.63-2.5,10.69.46,15.93,1.69,0,0,0,.39-.11.43a8.06,8.06,0,0,1-1.06.32Z" transform="translate(-201.88 -29.3)"/><path class="cls-17" d="M479.49,808.65c5.74,0,10.34,2.7,14.71,6C488.92,813.59,484.23,811.06,479.49,808.65Z" transform="translate(-201.88 -29.3)"/><path class="cls-14" d="M701.78,406.21c3-4.57,7.74-5.84,12.7-6.72C710.66,402.52,706.11,404.17,701.78,406.21Z" transform="translate(-201.88 -29.3)"/><path class="cls-18" d="M397.23,556.83c.18,0,.37,0,.55.08a4.71,4.71,0,0,1,.52.21c-4.3,2.2-8.52,4.63-13.61,4.32A37.76,37.76,0,0,1,397.23,556.83Z" transform="translate(-201.88 -29.3)"/><path class="cls-21" d="M477,455.4c5.12-.36,8,3.69,11.69,6,0,0-.11.4-.23.44a6.29,6.29,0,0,1-1.08.25Z" transform="translate(-201.88 -29.3)"/><path class="cls-14" d="M473.6,661.77l-1.29-.72c4.17-1.85,7.5-5.76,12.67-5.16Z" transform="translate(-201.88 -29.3)"/><path class="cls-21" d="M782.81,539.76A12,12,0,0,1,771.37,534Z" transform="translate(-201.88 -29.3)"/><path class="cls-15" d="M588.82,810.08l-1.25-.73c3.33-1.44,6.42-3.84,10.42-2.71Z" transform="translate(-201.88 -29.3)"/><path class="cls-18" d="M486.11,664c-.29,3.65-1.08,7-4.55,9.1C482.76,669.88,483.62,666.52,486.11,664Z" transform="translate(-201.88 -29.3)"/><path class="cls-20" d="M660.76,604.73a7.07,7.07,0,0,1,.17-1.67c.15-.45.89-1.15.84-.07-.19,3.62,3,7.14.29,10.79C661.63,610.76,661.2,607.75,660.76,604.73Z" transform="translate(-201.88 -29.3)"/><path class="cls-20" d="M407.51,554.56h3.23c-3.43-.22-6.5,3.88-10.07,1.18Z" transform="translate(-201.88 -29.3)"/><path class="cls-22" d="M769.06,533c-3.49,1.85-6.1-1-9.13-1.69,0-.16.05-.42.15-.46a7.18,7.18,0,0,1,1.06-.29Z" transform="translate(-201.88 -29.3)"/><path class="cls-17" d="M449.72,441.56c3.58-1.69,5.49,1.68,8.18,2.72-.07.16-.11.41-.22.46a7.62,7.62,0,0,1-1.07.27Z" transform="translate(-201.88 -29.3)"/><path class="cls-22" d="M689.3,642.35c3.12-2.87,5.92,1.23,9,.95l-4.41.21Z" transform="translate(-201.88 -29.3)"/><path class="cls-20" d="M326.8,447.45c1.12,3.61-.36,6.41-2.73,9C323.92,453.1,325.58,450.34,326.8,447.45Z" transform="translate(-201.88 -29.3)"/><path class="cls-18" d="M714.42,399.54c2.31-1.87,4.37-4.57,7.92-2.47C719.59,397.55,717.46,400,714.42,399.54Z" transform="translate(-201.88 -29.3)"/><path class="cls-20" d="M622.27,404.1c2.17,2.59-.46,4.92-.46,7.4,0,1-.71.26-.84-.16a8.21,8.21,0,0,1-.14-1.66Z" transform="translate(-201.88 -29.3)"/><path class="cls-31" d="M822.74,595.59l1.06,1.12c-1,1.64-1.75,3.53-3.67,4.44-.65.08-.92-.19-.76-.84A11.93,11.93,0,0,1,822.74,595.59Z" transform="translate(-201.88 -29.3)"/><path class="cls-32" d="M518.31,574l-1.17-1.08,1.29-5.87C519,569.42,520.14,571.78,518.31,574Z" transform="translate(-201.88 -29.3)"/><path class="cls-20" d="M324.12,456.34c.57,2.5-.74,4.72-1.07,7.08-.07.53-.06,1.94-1,.39-.25-.43-.11-1.09-.15-1.65C322.33,460.1,322.31,457.88,324.12,456.34Z" transform="translate(-201.88 -29.3)"/><path class="cls-12" d="M494,627.47c-1.87-2.78-.6-5.81.16-8.83v6.62C494.13,626,494.08,626.74,494,627.47Z" transform="translate(-201.88 -29.3)"/><path class="cls-22" d="M488.53,656.11c2.1,3.55-.6,5.6-2.46,7.93C485.61,661,488,658.84,488.53,656.11Z" transform="translate(-201.88 -29.3)"/><path class="cls-33" d="M655.06,783.82l3.51-2.32c1.42.32,2.07,1,.5,1.91a21.63,21.63,0,0,1-4.11,1.4C655,784.48,655,784.15,655.06,783.82Z" transform="translate(-201.88 -29.3)"/><path class="cls-12" d="M496.3,600.09c-1.88-2.09-.51-4.45-1.2-7.6,1.93,2.23,1.06,3.9,1.37,5.39C496.41,598.62,496.36,599.36,496.3,600.09Z" transform="translate(-201.88 -29.3)"/><path class="cls-34" d="M813.13,609.22A15.91,15.91,0,0,1,817,603.5a.82.82,0,0,1,.1,1.44C816.8,607.32,815.31,608.59,813.13,609.22Z" transform="translate(-201.88 -29.3)"/><path class="cls-35" d="M373.37,662c2-.29,4.05-.53,5.88.75l-2.4,1.2Z" transform="translate(-201.88 -29.3)"/><path class="cls-36" d="M817.09,604.94c0-.48-.07-1-.1-1.44l2.38-3.2.77.86C819.9,603,818.53,604,817.09,604.94Z" transform="translate(-201.88 -29.3)"/><path class="cls-37" d="M356.13,638.06c1.82.89,2.12,2.59,2.33,4.34C356.48,641.6,355.93,640,356.13,638.06Z" transform="translate(-201.88 -29.3)"/><path class="cls-38" d="M780.42,636.84l-2.26-.26a8,8,0,0,1,5.78-.84C783,637,781.64,636.64,780.42,636.84Z" transform="translate(-201.88 -29.3)"/><path class="cls-2" d="M1050.65,777.61c4.66-9.67,10.72-17.78,21.88-19.78,11.33-2,19.19,5,28.1,12.13-1-13.11-3.86-24.47-9.19-34.67-10.92-20.91-9.26-41.59-.87-62.4,5.39-13.36,11.48-26.45,22-36.83,10.15-10,21.16-7.48,24.77,6.28,2.53,9.66,4,19.64,1.69,29.73-.93,4.14.89,8.75-2.25,12.92a149.63,149.63,0,0,0-4.94-31.47c-1.27-4.59-1.71-11.24-7.24-11.73-4.71-.42-6.49,5.72-8.5,9.64-7.72,15-14.41,30.44-16.82,47.35-1.27,8.86.41,17.29,4,25.41,6,13.6,10,27.72,10.34,42.67.12,6.13-.48,12.82-7.24,15.28s-11.76-1.77-16-6.82c-11.74-13.81-22.89-14.1-36-1.12C1053.12,775.37,1051.87,776.48,1050.65,777.61Z" transform="translate(-201.88 -29.3)"/><path class="cls-2" d="M680.15,1137.53c-12.14,6.57-25.55,9.23-38.79,12.2-7.15,1.6-14.27,3.9-21.76,3.6-5.07-1.07-9.87,1.84-13.77.9-1.92.2-1,.89-1.28.19-.06-.14.11-.24.51-.24,1.84,0,3.73-.56,5.48.45-2.52,1.7-5.32,1-8.06,1-1.91-.93-4,0-6-.58-.76,0-.17.64,0,.6a5.79,5.79,0,0,1,4.93.14c-5,2-10.39,1.53-15.52,1.85a287.87,287.87,0,0,1-48.59-1,7.62,7.62,0,0,1-2-.86,5.48,5.48,0,0,1,3.85-.49c-.91.18-2.93-.53-4.93.33-2,.14-4.06.56-5.78-1,.15-.12.36-.36.43-.33.68.35,1.28.12.54,0-7.27-.92-14.17-3.69-21.5-4.31a40.22,40.22,0,0,1-15.93-5.68c-2.38-2.81-5.73-3.81-9.06-4.85a25.58,25.58,0,0,1-9.2-6.56c-3.66-3.39-4.84-7.92-5.71-12.55-1-5.15-2-10.29-2.88-15.46,0-.12.14-.28.22-.42-.83-.07-.25.93-.81,1.07-1.43-1.75-1-3.8-1-5.79,1.69-4.63-1.83-9-.8-12.52a2.79,2.79,0,0,1-.5,2.32,77.28,77.28,0,0,1-2.11-20.61,299.2,299.2,0,0,0,0-35.18c.67-15.2,2.61-30.17,7.81-44.58,2-3.55,3.81-7.14,3.47-11.39,6-16.7,12.68-33,27.67-44a42.31,42.31,0,0,1,4.36-2.48c8.28-3.64,16.68-7,25-10.58,13.43-4.93,27.37-6.15,41.48-5,3.22.25,6.83-.46,9.84,1.61-.26.31-.67.63-1,.47-.66-.36-1.2-.1-.47,0,4.29.51,8.41,2.25,12.83,1.88,16.55,4.12,31.45,11.2,43.17,24a3.41,3.41,0,0,0,3.53,3.54c7.63,6.67,13.25,15,18.59,23.44,24.54,39,38.23,82.2,48.35,126.73,1.09,4.78,1.79,9.67,2.43,14.54,1,7.47-4.42,14.65-14.6,19.7C688,1132.65,684.14,1135.2,680.15,1137.53Z" transform="translate(-201.88 -29.3)"/><path class="cls-17" d="M464.53,1105.58v-3.25c3.4,10.2,3.31,21.25,9.18,30.61-5.63-2.52-5.64-8.08-6.75-12.9S465.32,1110.4,464.53,1105.58Z" transform="translate(-201.88 -29.3)"/><path class="cls-17" d="M528.42,920.76a5,5,0,0,1,.56.09,3.28,3.28,0,0,1,.52.2c-8.76,3.24-16.87,8.12-26.05,10.29A78.74,78.74,0,0,1,528.42,920.76Z" transform="translate(-201.88 -29.3)"/><path class="cls-12" d="M460.14,1033.8c2.17,8.34.58,16.84.87,25.25.12,3.28,1.14,6.79-.87,9.93A317.59,317.59,0,0,1,460.14,1033.8Z" transform="translate(-201.88 -29.3)"/><path class="cls-17" d="M507.9,1150c2.58-2.33,5,0,7.35.51,5.48,1.2,10.92,2.56,16.58,3.23-.86,1.55-2.31.53-3.41.87A73.5,73.5,0,0,1,507.9,1150Z" transform="translate(-201.88 -29.3)"/><path class="cls-22" d="M591.14,919.67c-5.12,1.82-9.73-1.53-15-1.17,1.05-1.81,2.48-.82,3.56-1.16Z" transform="translate(-201.88 -29.3)"/><path class="cls-14" d="M680.15,1137.53c3.46-3.44,7.35-6,12.46-5.9C688.67,1134.05,684.77,1136.55,680.15,1137.53Z" transform="translate(-201.88 -29.3)"/><path class="cls-20" d="M610.54,1154.63h-5.46c4.92.48,9.49-4.17,14.52-1.3Z" transform="translate(-201.88 -29.3)"/><path class="cls-20" d="M462.25,1089.59v-4.33c.12,4.88,4.14,9.5,1.3,14.53Q462.91,1094.69,462.25,1089.59Z" transform="translate(-201.88 -29.3)"/><path class="cls-15" d="M471.42,977.83c1.95,4.81-1.81,8.4-2.73,12.6-.15,0-.4-.06-.44-.16a8.52,8.52,0,0,1-.3-1Z" transform="translate(-201.88 -29.3)"/><path class="cls-17" d="M482.91,1139.5c4.23-.6,7,2.56,10.34,4.14,0,0-.09.4-.2.44a6.56,6.56,0,0,1-1.08.27A36,36,0,0,1,482.91,1139.5Z" transform="translate(-201.88 -29.3)"/><path class="cls-12" d="M601.41,1155.77H596c2.18-1,4.37-1.87,6.49-.16A2.79,2.79,0,0,1,601.41,1155.77Z" transform="translate(-201.88 -29.3)"/><path class="cls-12" d="M534.21,1155.61c2.11-1.83,4.44-.55,6.67-.68-1.75,1.37-3.73.53-5.59.84A2.84,2.84,0,0,1,534.21,1155.61Z" transform="translate(-201.88 -29.3)"/><path class="cls-12" d="M637.84,947.22c-3,.43-4-.57-3.53-3.54Z" transform="translate(-201.88 -29.3)"/><path class="cls-1" d="M1103.61,860.13" transform="translate(-201.88 -29.3)"/><path class="cls-1" d="M1085.17,876.26l0,0" transform="translate(-201.88 -29.3)"/><path class="cls-3" d="M246.64,996.07l0,0" transform="translate(-201.88 -29.3)"/><path class="cls-3" d="M332.18,174.66l0,0" transform="translate(-201.88 -29.3)"/><path class="cls-1" d="M298,1098.75l0,0" transform="translate(-201.88 -29.3)"/><path class="cls-1" d="M315.09,1115.84" transform="translate(-201.88 -29.3)"/><path class="cls-1" d="M263.75,1030.27" transform="translate(-201.88 -29.3)"/><path class="cls-1" d="M280.84,1064.52l0,0" transform="translate(-201.88 -29.3)"/><path class="cls-1" d="M280.87,1047.39" transform="translate(-201.88 -29.3)"/><path class="cls-3" d="M280.86,1064.5" transform="translate(-201.88 -29.3)"/><path class="cls-1" d="M332.2,1133" transform="translate(-201.88 -29.3)"/><path class="cls-1" d="M400.65,1201.4" transform="translate(-201.88 -29.3)"/><path class="cls-1" d="M1102.26,328.65l0,0" transform="translate(-201.88 -29.3)"/><path class="cls-3" d="M1102.26,328.65" transform="translate(-201.88 -29.3)"/><path class="cls-3" d="M1102.25,345.76l0,0" transform="translate(-201.88 -29.3)"/><path class="cls-1" d="M1102.25,345.76" transform="translate(-201.88 -29.3)"/><path class="cls-1" d="M1102.26,362.88h0" transform="translate(-201.88 -29.3)"/><path class="cls-28" d="M504.59,634.65C503,646.5,499,657.72,495.22,669c-6.46,19-14.38,37.34-25,54.44-1.4-4.43,2-7.36,3.73-10.54,11.19-20.32,19.12-41.88,25.37-64.13,1.36-4.85,2.63-9.73,4-14.59a.54.54,0,0,1,.48-.18A6.93,6.93,0,0,1,504.59,634.65Z" transform="translate(-201.88 -29.3)"/><path class="cls-39" d="M467.61,580.92c-9.26-3.74-18.22-8.14-28-10.71-21.34-5.61-41.59-3.37-61,7.13-1.66.89-3.39,1.65-5.08,2.47-1.44-3.23,2-3.24,3.14-3.85,21.33-11.23,43.63-13.56,66.76-6.54a132.79,132.79,0,0,1,21.19,8c1.65.83,3.62,1.32,4.4,3.34A1.09,1.09,0,0,1,467.61,580.92Z" transform="translate(-201.88 -29.3)"/><path class="cls-40" d="M467.61,580.92l1.46-.14c5.21,1,9,4.67,13.27,7.34,2.36,1.47,1.73,4.1,1.5,6.25a361.37,361.37,0,0,0-2.19,40c0,3.2-.08,6.38-1.33,9.4,0,.09-.37.13-.53.09s-.29-.23-.44-.35c.11-15.89.94-31.76,2.39-47.57.43-4.68-1.12-7.35-5-9.41C473.58,584.87,470.64,582.81,467.61,580.92Z" transform="translate(-201.88 -29.3)"/><path class="cls-41" d="M422.31,665.17a151.71,151.71,0,0,0,40.75-11.53c1,.68.53,1.15-.24,1.56a107.7,107.7,0,0,1-37.94,11.59C423.41,667,422.84,666.23,422.31,665.17Z" transform="translate(-201.88 -29.3)"/><path class="cls-42" d="M472.17,745c10.34-1.49,20.74-.93,31.11-.7,4.68.1,9.46-.9,14.08.7Z" transform="translate(-201.88 -29.3)"/><path class="cls-43" d="M364.11,586.43l-6.67,5.82C358.31,588.77,359.84,586,364.11,586.43Z" transform="translate(-201.88 -29.3)"/><path class="cls-12" d="M535.26,811.2h9.13A8.28,8.28,0,0,1,535.26,811.2Z" transform="translate(-201.88 -29.3)"/><path class="cls-12" d="M525,822.6c2.06-2,4.4-.85,6.7,0h-6.68Z" transform="translate(-201.88 -29.3)"/><path class="cls-12" d="M402.89,380.86h-9.95l0-.46h10Z" transform="translate(-201.88 -29.3)"/><path class="cls-12" d="M492.72,442.75v5.7h-.51v-5.71Z" transform="translate(-201.88 -29.3)"/><path class="cls-2" d="M765.76,562.42c2.23.86,3.51,2.65,4.56,4.66,2.59,6,6.06,11.57,7.2,18.34,1.32,7.91-.57,14.9-3.46,21.93-.57,1.39-1.55,2.63-1.51,4.24A28.8,28.8,0,0,1,758.84,624c-5.55.71-10.5,3.65-16.35,3.68-8.22,0-15.6-1.87-22.3-6.51a6.69,6.69,0,0,0-3.51-1.67c-18-14.18-18.06-42.11-.18-57.33,6.81-3.14,13.06-7.45,21-8a38.41,38.41,0,0,1,24.73,6.51C763.32,561.46,764.33,562.39,765.76,562.42Z" transform="translate(-201.88 -29.3)"/><path class="cls-29" d="M705.33,550c-1.3-2.06.75-2.08,1.68-2.59,23.59-12.84,47.26-11,71-.32.77.34,1,1.07.21,1.77-9.37-3.36-18.64-6.92-28.69-8C733.72,539.13,719.27,543.2,705.33,550Z" transform="translate(-201.88 -29.3)"/><path class="cls-28" d="M765.76,562.42a1.46,1.46,0,0,1-2.34.54c-14.52-10.38-29.18-10.86-44-.7-.83.57-2,1.43-2.89-.07A37.09,37.09,0,0,1,765.76,562.42Z" transform="translate(-201.88 -29.3)"/><path class="cls-44" d="M772.55,611.59c-1.57-4.42,2.2-7.45,3.18-11.21,2.79-10.8.54-20.34-4.8-29.6-.66-1.15-2.63-2.1-.61-3.7C781,578.66,781.91,597.34,772.55,611.59Z" transform="translate(-201.88 -29.3)"/><path class="cls-45" d="M716.68,619.52c2.3-2.19,3.43.6,4.67,1.39,10.48,6.62,21.44,7.39,32.92,3.24,1.54-.56,3-1.94,4.57-.13C745.77,631.82,728.3,630,716.68,619.52Z" transform="translate(-201.88 -29.3)"/><path class="cls-11" d="M686,563.74c-1.38-2.57,1.25-3.34,2.37-4.12,4.2-2.93,7.34-7.91,13.41-7.5Z" transform="translate(-201.88 -29.3)"/><path class="cls-2" d="M461.16,585.22c2.33,1.53,4.57,3.14,5.77,5.79,2.9,6.89,6.92,13.24,7,21.27.08,14.94-6.13,26-19.31,32.62s-26,4.79-37.77-4c-3.21-2.4-5.25-5.91-8.34-8.41-10-15.4-6.37-36.23,8.17-47,7.35-3.73,14.69-7.25,23.33-7C447.75,578.72,454.35,582.18,461.16,585.22Z" transform="translate(-201.88 -29.3)"/><path class="cls-46" d="M408.47,632.44c1.88-1.74,2,.38,2.65,1.24,8.09,10.3,18.86,15.74,31.72,14,14.7-2,25.05-10.82,29.12-25.27,2.63-9.34,1-18.72-4.19-27.24-.71-1.17-3.22-2.27-.84-4.17,9.28,11.18,10.56,23.79,5.18,36.74-5.54,13.37-16.21,20.85-30.74,21.7C427.25,650.27,415.92,644.91,408.47,632.44Z" transform="translate(-201.88 -29.3)"/><path class="cls-13" d="M461.16,585.22c-1.15,1.76-2.11.56-3.25-.1-12.84-7.44-25.67-7.49-38.42.25-1,.63-1.88,1.31-2.85,0A35,35,0,0,1,461.16,585.22Z" transform="translate(-201.88 -29.3)"/><path class="cls-24" d="M707.53,644.68H702c1.89-1.22,3.76-1.72,5.5,0Z" transform="translate(-201.88 -29.3)"/><path class="cls-47" d="M647,1041.52c7.37.51,14.77-.27,22.12,1,2.55.45,4.26,1.33,5,3.81q5.25,17.07,10.5,34.14c1,3.3-1.35,4.39-3.68,5.37-17.93,7.52-36.78,11.52-56,13.87a335.16,335.16,0,0,1-48.77,2.42,279.81,279.81,0,0,1-51.21-5.69c-2.3-.48-4.14-.65-2.46-3.88,7.89-15.21,18.21-28.26,32.75-37.67,13.25-8.57,27.72-10.77,43.92-8.38-6,5.23-11.79,9.87-11.63,19.14,7.6-6.92,15.06-12.47,23.81-16.18a89.39,89.39,0,0,1,31.38-6.9c1.13,0,2.3.07,3.16-.92A.64.64,0,0,1,647,1041.52Z" transform="translate(-201.88 -29.3)"/><path class="cls-1" d="M487.69,1123.66c-1-4.05,2.35-6.2,4.3-8.61,3.42-4.22,7.6-7.83,11.46-11.69,3.13-1.71,5.85.41,8.63,1.12,28.3,7.14,57,9.38,86.13,8.1a317,317,0,0,0,61.16-8.21c8.64-2.1,17.26-4.46,25.29-8.44,3.74-1.85,5.48-1.11,6.08,3.18.47,3.32,2.18,6.45,1.81,10-1.93,5.43-7.88,6.41-11.3,10.19-11.65,8.37-24.72,13.94-38.33,17.93-22.53,6.6-45.7,7.89-69.08,6.89a255,255,0,0,1-65.13-10.93C501.36,1130.86,493.81,1128.77,487.69,1123.66Z" transform="translate(-201.88 -29.3)"/><path class="cls-1" d="M608,947.14c2.57,2.42,5.13,4.85,8.63,8.16a226.7,226.7,0,0,0-56.69-3.38,23,23,0,0,0-3.24.67c-5.33,2.17-11.09,1.3-16.61,2.33a292.52,292.52,0,0,0-35.66,8.62,6.48,6.48,0,0,1-4.4.29c-.17-3.08,2.8-4.87,3.16-7.73,1.91-7.87,5.15-13.78,14.25-16.08,20.05-5.08,40-10.36,60.86-6.64C589.29,935.34,599.86,938.7,608,947.14Z" transform="translate(-201.88 -29.3)"/><path class="cls-48" d="M487.69,1123.66c36.47,17.36,75.31,20.73,114.9,19.22a158.45,158.45,0,0,0,74.16-21.31c1.46-.84,3-1.55,4.5-2.31-.11,3.58-3.48,3.81-5.58,5-23.64,13.46-49.23,19.5-76.3,20.89-31.83,1.63-62.81-2.56-93.25-11.47a85.56,85.56,0,0,1-17.22-7.39C487.94,1125.76,485.92,1125.52,487.69,1123.66Z" transform="translate(-201.88 -29.3)"/><path class="cls-7" d="M692.55,1109.07c-1-3.62-2.26-7.19-3.06-10.86-.53-2.47-1.1-3-3.69-1.94-41.22,17.2-84.46,19.06-128.25,16.58-18.41-1-36.32-4.89-54.1-9.49-.52-.38-.75-.88-.29-1.39,1.22-1.35,2.43-.24,3.65,0,9.72,2.27,19.31,5.07,29.26,6.32,20.38,2.57,40.65,4.62,61.38,3.35,21-1.3,41.66-3.55,62-8.44,8.43-2,16.89-4.2,24.69-8.22,4.47-2.3,7.27-1.47,7.62,4C692,1102.37,695.46,1105.48,692.55,1109.07Z" transform="translate(-201.88 -29.3)"/><path class="cls-49" d="M608,947.14c-22-16.55-46.63-16.26-72-10.81-6.45,1.39-12.74,3.5-19.18,4.92-5.21,1.14-8.77,3.68-10.47,8.89-.69,2.11-2.12,4-3.21,6-.91-5.32,3.67-13.4,8.73-15.12,13.07-4.43,26.49-7.06,40.18-9a82.64,82.64,0,0,1,44.25,5.86c4.27,1.76,7.76,4.63,11.53,7.11C608.64,945.46,609.25,946.34,608,947.14Z" transform="translate(-201.88 -29.3)"/><path class="cls-50" d="M500,963.83c18.48-5.84,37.18-10.52,56.67-11.24H565c-4.48,2.22-9.26,1.85-13.82,2.22-15.28,1.21-30,4.8-44.57,9.14C504.51,964.56,502.12,966.92,500,963.83Z" transform="translate(-201.88 -29.3)"/><path class="cls-12" d="M565.82,917.14h-8.64l0-.54h8.65Z" transform="translate(-201.88 -29.3)"/><path class="cls-12" d="M647,1041.52a2.74,2.74,0,0,1-1.06.17h-6.74C641.82,1040.53,644.44,1039.86,647,1041.52Z" transform="translate(-201.88 -29.3)"/><path class="cls-1" d="M349.32,140.43" transform="translate(-201.88 -29.3)"/><path class="cls-1" d="M366.43,123.32" transform="translate(-201.88 -29.3)"/><path class="cls-3" d="M366.43,1184.29" transform="translate(-201.88 -29.3)"/><path class="cls-3" d="M349.32,1167.18" transform="translate(-201.88 -29.3)"/><path class="cls-51" d="M760,577.23c-5.17,4.68-10,5.17-13.72,1.39s-3.31-8.35,1.39-13.73c3.65-3,7.39-2.51,10.75.23C762,568.06,762.39,572.77,760,577.23Z" transform="translate(-201.88 -29.3)"/><path class="cls-52" d="M760,577.23c1.77-4.06,1.3-7.81-1.81-11s-6.77-2.81-10.52-1.34c2.16-5.1,6.29-2.79,9.31-1.88,4.82,1.46,7.15,10.08,4.4,14.46C761.23,577.62,760.43,577.32,760,577.23Z" transform="translate(-201.88 -29.3)"/><path class="cls-51" d="M454.09,588.85l2.46,2.19c3.14,3.4,3.38,6.79-.06,10.15-5.15,3.81-9.7,4-13,.54-3.11-3.3-2.5-8,1.67-12.93C448.17,586.38,451.14,586.24,454.09,588.85Z" transform="translate(-201.88 -29.3)"/><path class="cls-53" d="M456.49,601.19c1.88-3.37,1.6-6.75.06-10.15,2.78,1.55,3.52,2.75,3.4,5.48C459.84,599.05,459.09,600.06,456.49,601.19Z" transform="translate(-201.88 -29.3)"/><path class="cls-54" d="M454.09,588.85a10.89,10.89,0,0,0-8.89-.05c.4-4.38,3.72-1.78,5.66-2.19C452.15,586.34,454.76,585.64,454.09,588.85Z" transform="translate(-201.88 -29.3)"/></svg>