<svg id="Layer_1" data-name="Layer 1" xmlns="http://www.w3.org/2000/svg" viewBox="0 0 1159.83 1161.67"><defs><style>.cls-1{fill:#594640;}.cls-2{fill:#fee1bd;}.cls-3{fill:#3d4145;}.cls-4{fill:#444243;}.cls-5{fill:#454f46;}.cls-6{fill:#404144;}.cls-7{fill:#424244;}.cls-8{fill:#654d26;}.cls-9{fill:#e7e7e7;}.cls-10{fill:#e5e5e5;}.cls-11{fill:#fefefe;}</style></defs><title>Face1</title><path class="cls-1" d="M623.91,69.34l29.34.48,90.61,1.82c5.91,2.1,11.51-1.73,17.35-.87,8,.31,16.31-1.22,23.73,3.29,8.38,6.56,17.74,5.18,27.16,3.23,4.26-.35,8.23.17,11,3.9,5.79,9.74,13.66-.7,20.2,2,8.86,4.11,18.6,2.88,27.85,4.56,19.64,5.36,40.25,7,59.11,15.4a32,32,0,0,1,11,6.78c4.94,6.83,12.06,7.39,19.62,6.74,34.38,12.69,65.21,31,90,58.33,10.85,12,23.4,22,35.11,33,10.68,15.9,24.35,30,29.4,49.29,2.51,13.47,3.27,27.76,17,36,13.37,18.53,16.15,40.91,22.79,61.88,2,8.85,3.9,17.74,6.15,26.54q1.39,6.47,2.89,13a25.43,25.43,0,0,1,0,9.72c.12,6-6.37,12.12.5,18a8.33,8.33,0,0,1,4.17,4c1.54,4.12,1.3,8.26.43,12.42-.41,9.46-7.5,19,.48,28.33,4.18,3,4.37,7.28,4,11.79-2.86,15.3-1.44,30.82-2.51,46.2,0,.2.78.7.94.61.66-.37,1.23-.92,1.91-1.39a9.67,9.67,0,0,1,5.16,4.75c3.26,8.91,2.44,17.85.6,26.84-3.91,11.73-3.29,24-2.37,35.84,1.65,21.25-4.37,36.19-27.21,40.35-7.67,5.52-10.4,13.66-12.31,22.42-4.74,21.73-16.29,39.34-33.13,53.68-6,2.34-11.89,5.27-18,.46-3.59-6.43-1.85-12.48,1.26-18.44,5.41-26.06,5.72-52.09-.38-78.07a33.23,33.23,0,0,1-3.78-21.9c4.76-14.14,1.76-29.15,4.71-43.51.08-.36-.37-1.17-.61-1.18a10.84,10.84,0,0,0-2.32.34c-6.3-3-6.42-8.59-6-14.38,2.13-10.5,5-21-1-31.26-2.24-3.84-3.6-7.9-3.16-12.4-1.58-7.23,9.52-16.45-3.54-21.92-5.85-8.09-7.22-17.87-10.34-26.94-12.3-35.85-29.36-47.44-67.08-44C955.39,398.49,917.22,409,878.27,415c-7.14,1.1-14.19,2.91-21.45,3-8.09,1.64-16.48-8.23-24.46.65-3.75,4.65-8.75,4.66-14,3.95-8.11-2.22-16.11-3.46-23.44,2.35a24.08,24.08,0,0,1-16.43,2.69c-12.69-2.67-25.32-4.8-37.23,2.91-7.52,3.62-15.33,3.94-23.34,2.31a792.35,792.35,0,0,0-134.64.13c-9.32,2-18.52,2.09-27.35-2.09-11.6-7.67-24.23-6.07-36.9-3.89-4.7.36-9.12,0-11.81-4.67-11.16-5.88-22.12.25-33.21.61-46.64-5.66-92.86-13.42-138.15-25.9-6-13.32-15.44-2.23-23.22-3.09-51.87-1.18-68,11-81.94,61.61-2.11,7.71-2.67,15.89-7,22.93-6.14,7.65-4.37,16.06-2.25,24.51.89,6-.67,11.54-3.49,16.78-6.71,11.73-2,23.62-.44,35.48-5,41.72.15,83.75-4.12,125.45-3.22,9.84-3.68,20.91-12.18,28.48-24.74,1.28-26.95-20-34.24-35.33-6.33-13.3-4.85-30-17.33-40.77-7.71-5.06-15.44-9.34-24.06-1.6-4,4-8.19,3.39-12.56.76-9.46-8.55-7.45-21.25-11.62-31.73-2-14.58-3.35-29.12,3-43.1,8.58-18.08,5.44-36.72,2.6-55.35a41.76,41.76,0,0,1-.23-15.2c3.73-13.06,1.15-27,5.42-40,13.47-6.15,4.86-17.18,5.65-26.15.8-23.18,7.3-45.24,12.92-67.49,2.66-7.83,5.41-15.64,7.89-23.54,4.78-14.3,9.75-28.54,16.85-41.92,14.86-26.72,25.33-56.13,47.63-78.32,4.35-5,7.72-10.77,12-15.83,18.23-19,38.24-35.86,60.86-49.48a156.35,156.35,0,0,0,13.26-8.52c4.49-2.72,9.24-4.94,13.91-7.3,8.57-4.09,17-8.44,25.38-12.94,6.86-3.29,13.55-7,20.66-9.74,24.23-4.23,47.16-13.08,70.67-19.86,9.17-2.65,18.36-5.21,28.05-3.32,6.58,1.37,11.58-2.87,17.19-5a21.4,21.4,0,0,1,9.52-.31c6.49,1.66,13.15,2.49,19.57,4.42,3.08.93,4.91,1.42,1.76.72-.08,0,.13-1.38.16-2.19a4.37,4.37,0,0,1,2.62-4.13Z" transform="translate(-70.17 -69.34)"/><path class="cls-2" d="M502.19,1215.82q-36.76-18.12-73.43-36.38a394.83,394.83,0,0,1-37.82-21.63c-11.73-8-22.75-17-34.58-24.83-20-15.1-39.05-31.35-58.07-47.65-5.64-5.22-11-10.73-16.5-16.11-16.26-20.87-35-39.85-48.66-62.75-8.81-13-17.23-26.24-24.22-40.34-4.6-9.45-9.41-18.79-12.69-28.82a30,30,0,0,1-2.47-6.8c-5.86-35.84-21.95-58.71-61.3-68.28-33-8-48.86-39.47-58-71.85C67.74,767.85,71,744.8,70.65,722c1.48-26.07,4-51.89,19.73-74.16a86.26,86.26,0,0,1,10-10.7,35.52,35.52,0,0,1,5.54-4.37c3.14-1.79,6.45-2.53,10-1.35,4.16.53,7.88-.15,10.49-3.84,9.37-4.42,18.73-4.52,28.07.06,9.78,9,11.69,21.24,14.48,33.31,4.46,19.35,11.93,37.1,29.18,48.91,12.59-4.62,4.45-16.92,9.08-24.49,2.24-45.27-1.6-90.76,4.82-135.88-1.58-11.2-4.06-22.44,1.32-33.36,5.31-4,4.47-9.52,3.52-15-1.23-8.05-4.77-16.3,2.08-23.63,7.3-6.13,2.57-15,5.06-22.44,15.26-45.81,22.33-72.43,90.63-65.79,6.31-1.74,12.62-3.51,18.49,1.26,48.05,12.54,97,20.53,146,27.77,9.35-1.62,18.73-3.91,27.72,1.45,2.49,4.91,6.71,4.25,11,3.39,12.81-1.87,25.62-3.87,38.19,1.32,7.38,7.19,16.26,3.79,24.71,3.51a1269.68,1269.68,0,0,1,139.87,0c6.78.13,14,3.64,19.91-2.74,12.51-4.39,25.26-4.55,38.15-2.09,5.5.94,11,1.78,15-3.52,7.63-5.14,15.67-3,23.68-1.32,5.65,1,11.19,1.6,15.39-3.58,5.86-4.77,12.17-3,18.48-1.26,49-8.71,98-17.6,147.11-26.06,27.2-4.7,53.29,9,64.2,34.49,6.42,15,10.51,31.09,15.64,46.68,5.2,5.64,3.07,11.86,1.45,18-.75,3.86-1.62,7.75,2.65,10.31,4.64,10.85,5.07,22,2.11,33.28-1.19,5.64-.88,10.9,3.76,15.08,3.13,14.24,4.25,28.53,1.16,42.93-.6,6.94-2.92,14.18,3.52,19.87,4,28.86,5.43,57.69-.77,86.45-5.66,4-3.16,9.6-2.76,14.77,6.55,3.8,9.81-4,15.19-4.31,20.59-21.57,25.46-50.84,37.58-76.56,9.08-7.64,20.18-1.32,29.93-4.36,13.49,1.54,23.77,8.63,32.32,18.7,19.26,22.83,20.85,51.1,24.29,78.83,4,23.62-1.64,46.47-5.48,69.47-13,41.32-39.16,69.13-82.19,79-15.24,3.48-23.15,12.17-25.59,27.5-2.13,13.42-6.86,26.28-11.4,39.09-5.25,12.92-12,25.2-16.71,38.34-7.37,12.64-16.64,24.1-23.19,37.28-17.59,26-38.81,49-60.77,71.4-20.53,16.88-39.72,35.39-61.28,51.06-12,7.72-23.85,15.75-35.65,23.83-13.48,8-26.77,16.38-40.33,24.3-23.92,11.41-47.07,24.45-71.89,34-12.61,5.52-25.95,9-38.66,14.25" transform="translate(-70.17 -69.34)"/><path class="cls-3" d="M720.62,427.91c-46.63,2.13-93.25,1.88-139.87,0A495.76,495.76,0,0,1,720.62,427.91Z" transform="translate(-70.17 -69.34)"/><path class="cls-3" d="M1174.82,554.66l.57,72.27-33.3,1.44c36-3.56,28.21-30.65,28.78-53.36C1171,568.06,1168.89,560.54,1174.82,554.66Z" transform="translate(-70.17 -69.34)"/><path class="cls-3" d="M1092.08,694.47q.38-43.23.76-86.45C1101.22,636.91,1102.7,665.75,1092.08,694.47Z" transform="translate(-70.17 -69.34)"/><path class="cls-3" d="M109.77,558.45q1.13-28.5,2.26-57C117.32,520.69,121.05,539.87,109.77,558.45Z" transform="translate(-70.17 -69.34)"/><path class="cls-4" d="M1128,288.27c-.2,1.63-.41,3.25-.61,4.87-13.23-11.69-15.79-17.33-15.32-33.65Z" transform="translate(-70.17 -69.34)"/><path class="cls-3" d="M1089.33,588.15q-.58-21.46-1.16-42.93C1097.94,559.28,1094.69,573.69,1089.33,588.15Z" transform="translate(-70.17 -69.34)"/><path class="cls-3" d="M1171.58,496.32q-.16,14.1-.32,28.21c-9.76-15.5-6.38-31.34-1.28-47.24Q1170.78,486.81,1171.58,496.32Z" transform="translate(-70.17 -69.34)"/><path class="cls-3" d="M778.68,423.08l-38.15,2.09C752.72,414.86,765.63,417.84,778.68,423.08Z" transform="translate(-70.17 -69.34)"/><path class="cls-3" d="M106.83,636.55q.18-16.75.37-33.51,4.35,14.18,8.71,28.34Q111.37,634,106.83,636.55Z" transform="translate(-70.17 -69.34)"/><path class="cls-5" d="M1084.41,530.14q-1-16.64-2.11-33.28C1093.11,507.32,1090,518.65,1084.41,530.14Z" transform="translate(-70.17 -69.34)"/><path class="cls-3" d="M556,424.4l-38.19-1.32C530.79,417.49,543.6,415.64,556,424.4Z" transform="translate(-70.17 -69.34)"/><path class="cls-6" d="M207.21,685.33c.42,7.59,1.86,15.3,1,22.75-1,8.69-5.59,7.47-10.08,1.74Q202.66,697.58,207.21,685.33Z" transform="translate(-70.17 -69.34)"/><path class="cls-3" d="M154.47,627.6l-28.07-.06C135.78,618.46,145.13,620.75,154.47,627.6Z" transform="translate(-70.17 -69.34)"/><path class="cls-3" d="M213.35,516.09,212,549.45C206.22,538.08,204.32,526.87,213.35,516.09Z" transform="translate(-70.17 -69.34)"/><path class="cls-3" d="M506.86,419.69l-27.72-1.45c9.12-6.88,19.07-4.26,28.93-2.49.22,0,.44,1.46.24,2.09A6.92,6.92,0,0,1,506.86,419.69Z" transform="translate(-70.17 -69.34)"/><path class="cls-3" d="M116.87,443.28c-.22-3.08-.45-6.17-.67-9.26,5.62-1.24,4.26-6.33,5.51-10C125.55,431.82,132.23,440.31,116.87,443.28Z" transform="translate(-70.17 -69.34)"/><path class="cls-3" d="M1165.14,438.55q.81,13.6,1.6,27.22C1156,457.29,1160.48,447.92,1165.14,438.55Z" transform="translate(-70.17 -69.34)"/><path class="cls-3" d="M784.59,78.92l28,2.27C802.79,86.26,793.13,89.48,784.59,78.92Z" transform="translate(-70.17 -69.34)"/><path class="cls-3" d="M483.51,79.59l13.85.3c-7.17,10.89-15.26,5-23.23,1.28C476.69,77.28,480,77.91,483.51,79.59Z" transform="translate(-70.17 -69.34)"/><path class="cls-3" d="M1079.65,486.55q-.72-9-1.45-18C1088.06,473.77,1084.09,480.14,1079.65,486.55Z" transform="translate(-70.17 -69.34)"/><path class="cls-3" d="M817.38,418.24l-23.68,1.32C801.15,411.16,809.15,412.57,817.38,418.24Z" transform="translate(-70.17 -69.34)"/><path class="cls-3" d="M219,477.44q-1,11.81-2.08,23.63C211.49,492.66,209.39,484.53,219,477.44Z" transform="translate(-70.17 -69.34)"/><path class="cls-3" d="M333.13,390.47l-18.49-1.26C321.17,384.26,327.55,381.5,333.13,390.47Z" transform="translate(-70.17 -69.34)"/><path class="cls-3" d="M851.25,413.4l-18.48,1.26C838.35,405.77,844.72,408.4,851.25,413.4Z" transform="translate(-70.17 -69.34)"/><path class="cls-7" d="M1104.51,704.93c-4.9,3.83-6.84,11.74-15,10.84-.31,0-.17-4.26-.24-6.53Z" transform="translate(-70.17 -69.34)"/><path class="cls-7" d="M938.82,113.89l18.78,6.31C948.17,127.51,942.92,122.41,938.82,113.89Z" transform="translate(-70.17 -69.34)"/><path class="cls-3" d="M823.78,84.54,841.63,86C835.27,90.43,829,94.4,823.78,84.54Z" transform="translate(-70.17 -69.34)"/><path class="cls-8" d="M624.23,1116.3c-34.66-6-69.31-11.57-98.87-33.38-7.89-5.82-14.67-12.25-19.9-20-8.64-12.81-16.85-27.43-10.08-42.7,7-15.76,23.39-10.38,36.52-10.41q120.51-.3,241-.21c31.29,0,39.41,13,26.1,42.36-17.74,39-55.07,48.22-91.24,58.68-10,2.88-20.44,4-30.67,5.91C659.46,1118.83,641.84,1119.29,624.23,1116.3Z" transform="translate(-70.17 -69.34)"/><path class="cls-8" d="M358,747.41c2-54.39,41.71-86.06,85.49-85.47,54.38.73,86.14,44.07,86.14,84.91,0,57.87-49.27,89.74-85.94,87.43C393.35,831.12,360,802.48,358,747.41Z" transform="translate(-70.17 -69.34)"/><path class="cls-8" d="M764.38,747.85c1.69-53.86,40.62-86.16,85.07-85.92,55,.3,86.44,45.09,86.55,84.51.15,56.84-47.67,89.82-85.51,87.81C800.38,831.59,766.57,802.85,764.38,747.85Z" transform="translate(-70.17 -69.34)"/><path class="cls-9" d="M624.23,1116.3l52.87.25C659.44,1122.85,641.82,1123.24,624.23,1116.3Z" transform="translate(-70.17 -69.34)"/><path class="cls-10" d="M1228.79,356.09l.1.1" transform="translate(-70.17 -69.34)"/><path class="cls-10" d="M1156.22,936.67" transform="translate(-70.17 -69.34)"/><path class="cls-10" d="M1010.9,1081.81" transform="translate(-70.17 -69.34)"/><path class="cls-11" d="M938.5,1227" transform="translate(-70.17 -69.34)"/></svg>